<?xml version="1.0" standalone="yes"?>
<svg xmlns="http://www.w3.org/2000/svg" width="500" height="500">
<path style="fill:#ffffff; stroke:none;" d="M0 0L0 500L117 500L117 499C106.346 494.86 105.417 484.044 104.961 474C103.977 452.324 100.65 430.689 100.014 409C97.709 330.392 88.2893 251.472 82.9105 173C81.6109 154.04 80.6304 134.916 78.8302 116C78.1188 108.524 75.4782 96.4706 80.4336 90.0432C89.0448 78.8742 115.36 84 128 84L263 84L263 83C218.352 76.9877 173.947 60.9727 130 50.9892C119.388 48.5785 91.2795 45.943 88.4769 33C86.0937 21.9945 101.843 1.35547 113 2.09723C138.136 3.76846 165.514 14.3315 190 20.3742C197.958 22.3381 207.733 26.4573 215.907 26.527C220.365 26.565 222.517 20.8827 225.184 18.0934C230.36 12.6818 237.353 8.78281 245 9.97763C257.452 11.9232 269.828 15.9153 282 19.1157C288.45 20.8117 295.756 21.7516 300.985 26.2245C307.714 31.981 307.479 47.9966 314.059 50.74C336.615 60.145 364.253 63.1897 388 69.1266C396.494 71.2502 408.968 71.8482 415.957 77.419C423.777 83.6522 426.726 111.338 416.981 116.86C408.977 121.396 396.192 116.12 388 114C384.827 124.733 385.68 137.827 384.91 149C383.716 166.341 382.105 183.655 380.91 201C376.197 269.448 373.324 338.866 365.285 407C362.715 428.785 361.597 451.105 360.09 473C359.389 483.166 360.195 494.571 349 499L349 500L500 500L500 0L0 0z"/>
<path style="fill:#a1c1c2; stroke:none;" d="M106 2L107 3L106 2z"/>
<path style="fill:#367a7c; stroke:none;" d="M107.667 2.33334L108.333 2.66666L107.667 2.33334z"/>
<path style="fill:#05595b; stroke:none;" d="M266 83L266 84C221.341 84 176.574 84.9285 132 85L98 85C92.5364 85 86.4956 84.2973 82.1335 88.2785C75.4564 94.3726 78.8726 104.192 79.0031 112C79.3703 133.964 82.4083 156.085 83.9105 178C89.2297 255.603 97.4336 333.305 100.961 411C101.906 431.827 102.862 453.329 105.576 474C106.55 481.424 105.072 489.905 111.225 495.606C115.574 499.636 121.523 499 127 499L161 499L301 499L340 499C345.959 499 352.064 499.396 355.856 493.895C361.069 486.33 359.331 473.783 360.17 465C362.617 439.384 364.322 413.672 366.09 388C372.396 296.417 383.062 204.708 387 113C395.125 115.756 408.676 120.744 416.942 116.566C426.201 111.887 423.852 84.2745 416.892 78.419C409.435 72.1451 395.218 71.4124 386 69.1049C361.531 62.9797 335.143 53.0536 310 51C309.769 23.0474 287.294 20.7002 265 15.1266C256.958 13.1161 246.294 8.65594 238 10.5301C228.77 12.6156 222.032 28.0103 213.996 26.6721C189.956 22.6685 165.572 15.4706 142 9.26544C132.508 6.76682 117.74 0.404022 108 2.72375C97.0356 5.33511 82.6061 31.0917 93.0548 39.581C97.6043 43.2774 104.467 43.9903 110 45.3734C121.336 48.2074 132.576 51.5488 144 54C160.407 57.5206 176.692 61.9088 193 65.8704C216.594 71.6019 241.792 81.0228 266 83z"/>
<path style="fill:#367a7c; stroke:none;" d="M113 2L114 3L113 2z"/>
<path style="fill:#629798; stroke:none;" d="M114 2L115 3L114 2z"/>
<path style="fill:#a1c1c2; stroke:none;" d="M115.667 2.33334L116.333 2.66666L115.667 2.33334M104 3L105 4L104 3z"/>
<path style="fill:#367a7c; stroke:none;" d="M118 3L119 4L118 3z"/>
<path style="fill:#a1c1c2; stroke:none;" d="M119 3L120 4L119 3z"/>
<path style="fill:#367a7c; stroke:none;" d="M103 4L104 5L103 4z"/>
<path style="fill:#629798; stroke:none;" d="M122 4L123 5L122 4z"/>
<path style="fill:#a1c1c2; stroke:none;" d="M123.667 4.33334L124.333 4.66666L123.667 4.33334M101 5L102 6L101 5z"/>
<path style="fill:#367a7c; stroke:none;" d="M126 5L127 6L126 5z"/>
<path style="fill:#629798; stroke:none;" d="M127 5L128 6L127 5z"/>
<path style="fill:#a1c1c2; stroke:none;" d="M128 5L129 6L128 5M100 6L101 7L100 6z"/>
<path style="fill:#367a7c; stroke:none;" d="M130 6L131 7L130 6z"/>
<path style="fill:#629798; stroke:none;" d="M131 6L132 7L131 6z"/>
<path style="fill:#a1c1c2; stroke:none;" d="M132 6L133 7L132 6z"/>
<path style="fill:#629798; stroke:none;" d="M135 7L136 8L135 7z"/>
<path style="fill:#a1c1c2; stroke:none;" d="M136.667 7.33334L137.333 7.66666L136.667 7.33334z"/>
<path style="fill:#367a7c; stroke:none;" d="M99 8L100 9L99 8z"/>
<path style="fill:#629798; stroke:none;" d="M139 8L140 9L139 8z"/>
<path style="fill:#a1c1c2; stroke:none;" d="M140 8L141 9L140 8M98 9L99 10L98 9z"/>
<path style="fill:#367a7c; stroke:none;" d="M142 9L143 10L142 9z"/>
<path style="fill:#629798; stroke:none;" d="M143 9L144 10L143 9z"/>
<path style="fill:#a1c1c2; stroke:none;" d="M144 9L145 10L144 9M241 9L241 10L244 10L241 9z"/>
<path style="fill:#367a7c; stroke:none;" d="M147 10L148 11L147 10z"/>
<path style="fill:#629798; stroke:none;" d="M148 10L149 11L148 10z"/>
<path style="fill:#a1c1c2; stroke:none;" d="M149 10L150 11L149 10M235.667 10.3333L236.333 10.6667L235.667 10.3333z"/>
<path style="fill:#367a7c; stroke:none;" d="M237 10L238 11L237 10M245 10L246 11L245 10z"/>
<path style="fill:#629798; stroke:none;" d="M246 10L247 11L246 10z"/>
<path style="fill:#a1c1c2; stroke:none;" d="M247 10L248 11L247 10M97 11L98 12L97 11z"/>
<path style="fill:#367a7c; stroke:none;" d="M151 11L152 12L151 11z"/>
<path style="fill:#629798; stroke:none;" d="M152 11L153 12L152 11z"/>
<path style="fill:#a1c1c2; stroke:none;" d="M153 11L154 12L153 11M233 11L234 12L233 11z"/>
<path style="fill:#367a7c; stroke:none;" d="M234 11L235 12L234 11M249 11L250 12L249 11z"/>
<path style="fill:#629798; stroke:none;" d="M250 11L251 12L250 11z"/>
<path style="fill:#a1c1c2; stroke:none;" d="M251 11L252 12L251 11z"/>
<path style="fill:#367a7c; stroke:none;" d="M155 12L156 13L155 12z"/>
<path style="fill:#629798; stroke:none;" d="M156 12L157 13L156 12z"/>
<path style="fill:#a1c1c2; stroke:none;" d="M157 12L158 13L157 12z"/>
<path style="fill:#367a7c; stroke:none;" d="M232 12L233 13L232 12M254 12L255 13L254 12z"/>
<path style="fill:#a1c1c2; stroke:none;" d="M255 12L256 13L255 12z"/>
<path style="fill:#629798; stroke:none;" d="M96 13L97 14L96 13z"/>
<path style="fill:#367a7c; stroke:none;" d="M159 13L160 14L159 13z"/>
<path style="fill:#a1c1c2; stroke:none;" d="M160.667 13.3333L161.333 13.6667L160.667 13.3333z"/>
<path style="fill:#629798; stroke:none;" d="M230 13L231 14L230 13M258 13L259 14L258 13z"/>
<path style="fill:#a1c1c2; stroke:none;" d="M259.667 13.3333L260.333 13.6667L259.667 13.3333z"/>
<path style="fill:#629798; stroke:none;" d="M163 14L164 15L163 14z"/>
<path style="fill:#a1c1c2; stroke:none;" d="M164.667 14.3333L165.333 14.6667L164.667 14.3333z"/>
<path style="fill:#367a7c; stroke:none;" d="M229 14L230 15L229 14M262 14L263 15L262 14z"/>
<path style="fill:#629798; stroke:none;" d="M263 14L264 15L263 14z"/>
<path style="fill:#a1c1c2; stroke:none;" d="M264 14L265 15L264 14z"/>
<path style="fill:#629798; stroke:none;" d="M95 15L96 16L95 15z"/>
<path style="fill:#367a7c; stroke:none;" d="M167 15L168 16L167 15z"/>
<path style="fill:#a1c1c2; stroke:none;" d="M168.667 15.3333L169.333 15.6667L168.667 15.3333M227 15L228 16L227 15z"/>
<path style="fill:#367a7c; stroke:none;" d="M266 15L267 16L266 15z"/>
<path style="fill:#a1c1c2; stroke:none;" d="M267.667 15.3333L268.333 15.6667L267.667 15.3333z"/>
<path style="fill:#367a7c; stroke:none;" d="M171 16L172 17L171 16z"/>
<path style="fill:#629798; stroke:none;" d="M172 16L173 17L172 16z"/>
<path style="fill:#a1c1c2; stroke:none;" d="M173 16L174 17L173 16M226 16L227 17L226 16z"/>
<path style="fill:#367a7c; stroke:none;" d="M270 16L271 17L270 16z"/>
<path style="fill:#629798; stroke:none;" d="M271 16L272 17L271 16z"/>
<path style="fill:#a1c1c2; stroke:none;" d="M272 16L273 17L272 16z"/>
<path style="fill:#367a7c; stroke:none;" d="M94 17L95 18L94 17M175 17L176 18L175 17z"/>
<path style="fill:#629798; stroke:none;" d="M176 17L177 18L176 17z"/>
<path style="fill:#a1c1c2; stroke:none;" d="M177 17L178 18L177 17M225 17L226 18L225 17z"/>
<path style="fill:#367a7c; stroke:none;" d="M274 17L275 18L274 17z"/>
<path style="fill:#a1c1c2; stroke:none;" d="M275.667 17.3333L276.333 17.6667L275.667 17.3333M93 18L94 19L93 18z"/>
<path style="fill:#367a7c; stroke:none;" d="M179 18L180 19L179 18z"/>
<path style="fill:#629798; stroke:none;" d="M180 18L181 19L180 18z"/>
<path style="fill:#a1c1c2; stroke:none;" d="M181 18L182 19L181 18M224 18L225 19L224 18z"/>
<path style="fill:#629798; stroke:none;" d="M278 18L279 19L278 18z"/>
<path style="fill:#a1c1c2; stroke:none;" d="M279 18L280 19L279 18z"/>
<path style="fill:#367a7c; stroke:none;" d="M93 19L94 20L93 19z"/>
<path style="fill:#629798; stroke:none;" d="M184 19L185 20L184 19z"/>
<path style="fill:#a1c1c2; stroke:none;" d="M185.667 19.3333L186.333 19.6667L185.667 19.3333M223 19L224 20L223 19z"/>
<path style="fill:#629798; stroke:none;" d="M282 19L283 20L282 19z"/>
<path style="fill:#a1c1c2; stroke:none;" d="M283 19L284 20L283 19M92 20L93 21L92 20z"/>
<path style="fill:#367a7c; stroke:none;" d="M188 20L189 21L188 20z"/>
<path style="fill:#629798; stroke:none;" d="M189 20L190 21L189 20z"/>
<path style="fill:#a1c1c2; stroke:none;" d="M190 20L191 21L190 20z"/>
<path style="fill:#367a7c; stroke:none;" d="M223 20L224 21L223 20M285 20L286 21L285 20z"/>
<path style="fill:#629798; stroke:none;" d="M286 20L287 21L286 20z"/>
<path style="fill:#a1c1c2; stroke:none;" d="M287 20L288 21L287 20z"/>
<path style="fill:#367a7c; stroke:none;" d="M92 21L93 22L92 21M192 21L193 22L192 21z"/>
<path style="fill:#629798; stroke:none;" d="M193 21L194 22L193 21z"/>
<path style="fill:#a1c1c2; stroke:none;" d="M194 21L195 22L194 21z"/>
<path style="fill:#367a7c; stroke:none;" d="M222 21L223 22L222 21M289 21L290 22L289 21z"/>
<path style="fill:#629798; stroke:none;" d="M290 21L291 22L290 21z"/>
<path style="fill:#a1c1c2; stroke:none;" d="M291 21L292 22L291 21M91 22L92 23L91 22z"/>
<path style="fill:#367a7c; stroke:none;" d="M196 22L197 23L196 22z"/>
<path style="fill:#a1c1c2; stroke:none;" d="M197.667 22.3333L198.333 22.6667L197.667 22.3333M221 22L222 23L221 22z"/>
<path style="fill:#367a7c; stroke:none;" d="M293 22L294 23L293 22z"/>
<path style="fill:#a1c1c2; stroke:none;" d="M294 22L295 23L294 22z"/>
<path style="fill:#367a7c; stroke:none;" d="M91 23L92 24L91 23M200 23L201 24L200 23z"/>
<path style="fill:#629798; stroke:none;" d="M201 23L202 24L201 23z"/>
<path style="fill:#a1c1c2; stroke:none;" d="M202 23L203 24L202 23z"/>
<path style="fill:#367a7c; stroke:none;" d="M296 23L297 24L296 23z"/>
<path style="fill:#a1c1c2; stroke:none;" d="M297 23L298 24L297 23M90 24L91 25L90 24z"/>
<path style="fill:#367a7c; stroke:none;" d="M204 24L205 25L204 24z"/>
<path style="fill:#629798; stroke:none;" d="M205 24L206 25L205 24z"/>
<path style="fill:#a1c1c2; stroke:none;" d="M206.667 24.3333L207.333 24.6667L206.667 24.3333z"/>
<path style="fill:#629798; stroke:none;" d="M220 24L221 25L220 24z"/>
<path style="fill:#367a7c; stroke:none;" d="M298 24L299 25L298 24z"/>
<path style="fill:#a1c1c2; stroke:none;" d="M299 24L300 25L299 24z"/>
<path style="fill:#367a7c; stroke:none;" d="M90 25L91 26L90 25M208 25L209 26L208 25z"/>
<path style="fill:#629798; stroke:none;" d="M209 25L210 26L209 25z"/>
<path style="fill:#a1c1c2; stroke:none;" d="M210.667 25.3333L211.333 25.6667L210.667 25.3333M219 25L220 26L219 25z"/>
<path style="fill:#629798; stroke:none;" d="M300 25L301 26L300 25z"/>
<path style="fill:#a1c1c2; stroke:none;" d="M89 26L90 27L89 26z"/>
<path style="fill:#629798; stroke:none;" d="M213 26L214 27L213 26z"/>
<path style="fill:#a1c1c2; stroke:none;" d="M214 26L215 27L214 26z"/>
<path style="fill:#367a7c; stroke:none;" d="M219 26L220 27L219 26M301 26L302 27L301 26M89 27L90 28L89 27M216.667 27.3333L217.333 27.6667L216.667 27.3333z"/>
<path style="fill:#629798; stroke:none;" d="M218 27L219 28L218 27z"/>
<path style="fill:#367a7c; stroke:none;" d="M302 27L303 28L302 27z"/>
<path style="fill:#a1c1c2; stroke:none;" d="M88 28L89 29L88 28z"/>
<path style="fill:#367a7c; stroke:none;" d="M303 28L304 29L303 28M88 29L89 30L88 29z"/>
<path style="fill:#629798; stroke:none;" d="M304 29L305 30L304 29z"/>
<path style="fill:#a1c1c2; stroke:none;" d="M305 30L306 31L305 30z"/>
<path style="fill:#367a7c; stroke:none;" d="M305 31L306 32L305 31z"/>
<path style="fill:#a1c1c2; stroke:none;" d="M306 32L307 33L306 32z"/>
<path style="fill:#367a7c; stroke:none;" d="M88 33L89 34L88 33z"/>
<path style="fill:#629798; stroke:none;" d="M88 34L89 35L88 34z"/>
<path style="fill:#a1c1c2; stroke:none;" d="M307 34L308 35L307 34z"/>
<path style="fill:#367a7c; stroke:none;" d="M307 35L308 36L307 35z"/>
<path style="fill:#a1c1c2; stroke:none;" d="M89 36L90 37L89 36M308 36L309 37L308 36z"/>
<path style="fill:#629798; stroke:none;" d="M90 37L91 38L90 37M308 37L309 38L308 37M91 38L92 39L91 38z"/>
<path style="fill:#367a7c; stroke:none;" d="M308 38L309 39L308 38z"/>
<path style="fill:#629798; stroke:none;" d="M92 39L93 40L92 39z"/>
<path style="fill:#a1c1c2; stroke:none;" d="M93 40L94 41L93 40M309 40L310 41L309 40z"/>
<path style="fill:#629798; stroke:none;" d="M95 41L96 42L95 41M309.333 41.6667L309.667 42.3333L309.333 41.6667z"/>
<path style="fill:#a1c1c2; stroke:none;" d="M97 42L98 43L97 42z"/>
<path style="fill:#629798; stroke:none;" d="M98 42L99 43L98 42z"/>
<path style="fill:#a1c1c2; stroke:none;" d="M100 43L101 44L100 43z"/>
<path style="fill:#629798; stroke:none;" d="M101 43L102 44L101 43z"/>
<path style="fill:#367a7c; stroke:none;" d="M102 43L103 44L102 43M309 43L310 44L309 43z"/>
<path style="fill:#a1c1c2; stroke:none;" d="M104 44L105 45L104 44z"/>
<path style="fill:#629798; stroke:none;" d="M105 44L106 45L105 44z"/>
<path style="fill:#367a7c; stroke:none;" d="M106 44L107 45L106 44z"/>
<path style="fill:#a1c1c2; stroke:none;" d="M108 45L109 46L108 45z"/>
<path style="fill:#629798; stroke:none;" d="M109 45L110 46L109 45z"/>
<path style="fill:#367a7c; stroke:none;" d="M110 45L111 46L110 45z"/>
<path style="fill:#a1c1c2; stroke:none;" d="M112 46L113 47L112 46z"/>
<path style="fill:#629798; stroke:none;" d="M113 46L114 47L113 46z"/>
<path style="fill:#367a7c; stroke:none;" d="M114 46L115 47L114 46z"/>
<path style="fill:#a1c1c2; stroke:none;" d="M116 47L117 48L116 47z"/>
<path style="fill:#629798; stroke:none;" d="M117 47L118 48L117 47z"/>
<path style="fill:#367a7c; stroke:none;" d="M118 47L119 48L118 47z"/>
<path style="fill:#a1c1c2; stroke:none;" d="M120 48L121 49L120 48z"/>
<path style="fill:#629798; stroke:none;" d="M121 48L122 49L121 48z"/>
<path style="fill:#367a7c; stroke:none;" d="M122 48L123 49L122 48z"/>
<path style="fill:#a1c1c2; stroke:none;" d="M124 49L125 50L124 49z"/>
<path style="fill:#629798; stroke:none;" d="M125 49L126 50L125 49z"/>
<path style="fill:#a1c1c2; stroke:none;" d="M310 49L311 50L310 49M127.667 50.3333L128.333 50.6667L127.667 50.3333z"/>
<path style="fill:#629798; stroke:none;" d="M129 50L130 51L129 50z"/>
<path style="fill:#367a7c; stroke:none;" d="M310 50L311 51L310 50z"/>
<path style="fill:#629798; stroke:none;" d="M311 50L312 51L311 50z"/>
<path style="fill:#a1c1c2; stroke:none;" d="M312 50L313 51L312 50M132 51L133 52L132 51z"/>
<path style="fill:#629798; stroke:none;" d="M133 51L134 52L133 51z"/>
<path style="fill:#367a7c; stroke:none;" d="M134 51L135 52L134 51M314 51L315 52L314 51z"/>
<path style="fill:#629798; stroke:none;" d="M315 51L316 52L315 51z"/>
<path style="fill:#a1c1c2; stroke:none;" d="M316 51L317 52L316 51M136 52L137 53L136 52z"/>
<path style="fill:#629798; stroke:none;" d="M137 52L138 53L137 52z"/>
<path style="fill:#367a7c; stroke:none;" d="M318 52L319 53L318 52z"/>
<path style="fill:#629798; stroke:none;" d="M319 52L320 53L319 52z"/>
<path style="fill:#a1c1c2; stroke:none;" d="M320 52L321 53L320 52M140 53L141 54L140 53z"/>
<path style="fill:#629798; stroke:none;" d="M141 53L142 54L141 53z"/>
<path style="fill:#367a7c; stroke:none;" d="M322 53L323 54L322 53z"/>
<path style="fill:#629798; stroke:none;" d="M323 53L324 54L323 53z"/>
<path style="fill:#a1c1c2; stroke:none;" d="M324 53L325 54L324 53M144 54L145 55L144 54z"/>
<path style="fill:#629798; stroke:none;" d="M145 54L146 55L145 54z"/>
<path style="fill:#367a7c; stroke:none;" d="M146 54L147 55L146 54z"/>
<path style="fill:#629798; stroke:none;" d="M327 54L328 55L327 54z"/>
<path style="fill:#a1c1c2; stroke:none;" d="M328.667 54.3333L329.333 54.6667L328.667 54.3333M148 55L149 56L148 55z"/>
<path style="fill:#629798; stroke:none;" d="M149 55L150 56L149 55z"/>
<path style="fill:#367a7c; stroke:none;" d="M150 55L151 56L150 55z"/>
<path style="fill:#629798; stroke:none;" d="M331 55L332 56L331 55z"/>
<path style="fill:#a1c1c2; stroke:none;" d="M332 55L333 56L332 55M152.667 56.3333L153.333 56.6667L152.667 56.3333z"/>
<path style="fill:#367a7c; stroke:none;" d="M154 56L155 57L154 56M334 56L335 57L334 56z"/>
<path style="fill:#629798; stroke:none;" d="M335 56L336 57L335 56z"/>
<path style="fill:#a1c1c2; stroke:none;" d="M336 56L337 57L336 56M156 57L157 58L156 57z"/>
<path style="fill:#629798; stroke:none;" d="M157 57L158 58L157 57z"/>
<path style="fill:#367a7c; stroke:none;" d="M158 57L159 58L158 57M338 57L339 58L338 57z"/>
<path style="fill:#629798; stroke:none;" d="M339 57L340 58L339 57z"/>
<path style="fill:#a1c1c2; stroke:none;" d="M340 57L341 58L340 57M160.667 58.3333L161.333 58.6667L160.667 58.3333z"/>
<path style="fill:#367a7c; stroke:none;" d="M162 58L163 59L162 58z"/>
<path style="fill:#629798; stroke:none;" d="M343 58L344 59L343 58z"/>
<path style="fill:#a1c1c2; stroke:none;" d="M344.667 58.3333L345.333 58.6667L344.667 58.3333M164 59L165 60L164 59z"/>
<path style="fill:#629798; stroke:none;" d="M165 59L166 60L165 59z"/>
<path style="fill:#367a7c; stroke:none;" d="M166 59L167 60L166 59M347 59L348 60L347 59z"/>
<path style="fill:#629798; stroke:none;" d="M348 59L349 60L348 59z"/>
<path style="fill:#a1c1c2; stroke:none;" d="M349 59L350 60L349 59M168.667 60.3333L169.333 60.6667L168.667 60.3333z"/>
<path style="fill:#629798; stroke:none;" d="M170 60L171 61L170 60z"/>
<path style="fill:#367a7c; stroke:none;" d="M351 60L352 61L351 60z"/>
<path style="fill:#629798; stroke:none;" d="M352 60L353 61L352 60z"/>
<path style="fill:#a1c1c2; stroke:none;" d="M353 60L354 61L353 60M172.667 61.3333L173.333 61.6667L172.667 61.3333z"/>
<path style="fill:#367a7c; stroke:none;" d="M174 61L175 62L174 61M355 61L356 62L355 61z"/>
<path style="fill:#629798; stroke:none;" d="M356 61L357 62L356 61z"/>
<path style="fill:#a1c1c2; stroke:none;" d="M357 61L358 62L357 61M176 62L177 63L176 62z"/>
<path style="fill:#629798; stroke:none;" d="M177 62L178 63L177 62z"/>
<path style="fill:#367a7c; stroke:none;" d="M178 62L179 63L178 62M359 62L360 63L359 62z"/>
<path style="fill:#629798; stroke:none;" d="M360 62L361 63L360 62z"/>
<path style="fill:#a1c1c2; stroke:none;" d="M361 62L362 63L361 62M181 63L182 64L181 63z"/>
<path style="fill:#629798; stroke:none;" d="M182 63L183 64L182 63z"/>
<path style="fill:#367a7c; stroke:none;" d="M183 63L184 64L183 63M363 63L364 64L363 63z"/>
<path style="fill:#629798; stroke:none;" d="M364 63L365 64L364 63z"/>
<path style="fill:#a1c1c2; stroke:none;" d="M365 63L366 64L365 63M185 64L186 65L185 64z"/>
<path style="fill:#629798; stroke:none;" d="M186 64L187 65L186 64z"/>
<path style="fill:#367a7c; stroke:none;" d="M187 64L188 65L187 64M367 64L368 65L367 64z"/>
<path style="fill:#629798; stroke:none;" d="M368 64L369 65L368 64z"/>
<path style="fill:#a1c1c2; stroke:none;" d="M369 64L370 65L369 64M189.667 65.3333L190.333 65.6667L189.667 65.3333z"/>
<path style="fill:#367a7c; stroke:none;" d="M191 65L192 66L191 65M371 65L372 66L371 65z"/>
<path style="fill:#629798; stroke:none;" d="M372 65L373 66L372 65z"/>
<path style="fill:#a1c1c2; stroke:none;" d="M373 65L374 66L373 65M193.667 66.3333L194.333 66.6667L193.667 66.3333z"/>
<path style="fill:#629798; stroke:none;" d="M195 66L196 67L195 66M376 66L377 67L376 66z"/>
<path style="fill:#a1c1c2; stroke:none;" d="M377.667 66.3333L378.333 66.6667L377.667 66.3333M198 67L199 68L198 67z"/>
<path style="fill:#629798; stroke:none;" d="M199 67L200 68L199 67z"/>
<path style="fill:#367a7c; stroke:none;" d="M200 67L201 68L200 67z"/>
<path style="fill:#629798; stroke:none;" d="M380 67L381 68L380 67z"/>
<path style="fill:#a1c1c2; stroke:none;" d="M381 67L382 68L381 67M202 68L203 69L202 68z"/>
<path style="fill:#629798; stroke:none;" d="M203 68L204 69L203 68z"/>
<path style="fill:#367a7c; stroke:none;" d="M383 68L384 69L383 68z"/>
<path style="fill:#629798; stroke:none;" d="M384 68L385 69L384 68z"/>
<path style="fill:#a1c1c2; stroke:none;" d="M385 68L386 69L385 68M205.667 69.3333L206.333 69.6667L205.667 69.3333z"/>
<path style="fill:#367a7c; stroke:none;" d="M207 69L208 70L207 69M387 69L388 70L387 69z"/>
<path style="fill:#629798; stroke:none;" d="M388 69L389 70L388 69z"/>
<path style="fill:#a1c1c2; stroke:none;" d="M389 69L390 70L389 69M209.667 70.3333L210.333 70.6667L209.667 70.3333z"/>
<path style="fill:#629798; stroke:none;" d="M211 70L212 71L211 70M392 70L393 71L392 70z"/>
<path style="fill:#a1c1c2; stroke:none;" d="M393 70L394 71L393 70M214 71L215 72L214 71z"/>
<path style="fill:#629798; stroke:none;" d="M215 71L216 72L215 71z"/>
<path style="fill:#367a7c; stroke:none;" d="M216 71L217 72L216 71M395 71L396 72L395 71z"/>
<path style="fill:#629798; stroke:none;" d="M396 71L397 72L396 71z"/>
<path style="fill:#a1c1c2; stroke:none;" d="M397.667 71.3333L398.333 71.6667L397.667 71.3333M218 72L219 73L218 72z"/>
<path style="fill:#629798; stroke:none;" d="M219 72L220 73L219 72z"/>
<path style="fill:#367a7c; stroke:none;" d="M220 72L221 73L220 72M400 72L401 73L400 72z"/>
<path style="fill:#a1c1c2; stroke:none;" d="M401.667 72.3333L402.333 72.6667L401.667 72.3333M222 73L223 74L222 73z"/>
<path style="fill:#629798; stroke:none;" d="M223 73L224 74L223 73z"/>
<path style="fill:#367a7c; stroke:none;" d="M224 73L225 74L224 73z"/>
<path style="fill:#629798; stroke:none;" d="M404 73L405 74L404 73z"/>
<path style="fill:#a1c1c2; stroke:none;" d="M405 73L406 74L405 73M226 74L227 75L226 74z"/>
<path style="fill:#629798; stroke:none;" d="M227 74L228 75L227 74z"/>
<path style="fill:#367a7c; stroke:none;" d="M228 74L229 75L228 74M407 74L408 75L407 74z"/>
<path style="fill:#629798; stroke:none;" d="M408 74L409 75L408 74z"/>
<path style="fill:#a1c1c2; stroke:none;" d="M409.667 74.3333L410.333 74.6667L409.667 74.3333M230.667 75.3333L231.333 75.6667L230.667 75.3333z"/>
<path style="fill:#367a7c; stroke:none;" d="M232 75L233 76L232 75M411 75L412 76L411 75z"/>
<path style="fill:#629798; stroke:none;" d="M412 75L413 76L412 75z"/>
<path style="fill:#a1c1c2; stroke:none;" d="M413 75L414 76L413 75M234 76L235 77L234 76z"/>
<path style="fill:#629798; stroke:none;" d="M235 76L236 77L235 76z"/>
<path style="fill:#367a7c; stroke:none;" d="M236 76L237 77L236 76M414 76L415 77L414 76z"/>
<path style="fill:#a1c1c2; stroke:none;" d="M415 76L416 77L415 76M238.667 77.3333L239.333 77.6667L238.667 77.3333z"/>
<path style="fill:#367a7c; stroke:none;" d="M240 77L241 78L240 77z"/>
<path style="fill:#629798; stroke:none;" d="M416 77L417 78L416 77z"/>
<path style="fill:#a1c1c2; stroke:none;" d="M242 78L243 79L242 78z"/>
<path style="fill:#629798; stroke:none;" d="M243 78L244 79L243 78z"/>
<path style="fill:#367a7c; stroke:none;" d="M244 78L245 79L244 78M417 78L418 79L417 78z"/>
<path style="fill:#a1c1c2; stroke:none;" d="M246.667 79.3333L247.333 79.6667L246.667 79.3333z"/>
<path style="fill:#629798; stroke:none;" d="M248 79L249 80L248 79z"/>
<path style="fill:#367a7c; stroke:none;" d="M418 79L419 80L418 79z"/>
<path style="fill:#a1c1c2; stroke:none;" d="M251 80L252 81L251 80z"/>
<path style="fill:#629798; stroke:none;" d="M252 80L253 81L252 80M419 80L420 81L419 80z"/>
<path style="fill:#a1c1c2; stroke:none;" d="M255 81L256 82L255 81z"/>
<path style="fill:#629798; stroke:none;" d="M256 81L257 82L256 81z"/>
<path style="fill:#367a7c; stroke:none;" d="M257 81L258 82L257 81z"/>
<path style="fill:#a1c1c2; stroke:none;" d="M259 82L260 83L259 82z"/>
<path style="fill:#629798; stroke:none;" d="M260 82L261 83L260 82z"/>
<path style="fill:#367a7c; stroke:none;" d="M261 82L262 83L261 82z"/>
<path style="fill:#629798; stroke:none;" d="M420 82L421 83L420 82z"/>
<path style="fill:#a1c1c2; stroke:none;" d="M263 83L264 84L263 83z"/>
<path style="fill:#629798; stroke:none;" d="M264 83L265 84L264 83z"/>
<path style="fill:#367a7c; stroke:none;" d="M265 83L266 84L265 83z"/>
<path style="fill:#a1c1c2; stroke:none;" d="M87 84L88 85L87 84z"/>
<path style="fill:#629798; stroke:none;" d="M88 84L89 85L88 84z"/>
<path style="fill:#367a7c; stroke:none;" d="M89 84L89 85L141 85L124 84L89 84z"/>
<path style="fill:#629798; stroke:none;" d="M421 84L422 85L421 84M85 85L86 86L85 85z"/>
<path style="fill:#367a7c; stroke:none;" d="M86 85L87 86L86 85M421 85L422 86L421 85z"/>
<path style="fill:#a1c1c2; stroke:none;" d="M83 86L84 87L83 86z"/>
<path style="fill:#629798; stroke:none;" d="M82 87L83 88L82 87z"/>
<path style="fill:#367a7c; stroke:none;" d="M81 88L82 89L81 88M80 89L81 90L80 89z"/>
<path style="fill:#a1c1c2; stroke:none;" d="M79 90L80 91L79 90z"/>
<path style="fill:#629798; stroke:none;" d="M78 92L79 93L78 92z"/>
<path style="fill:#367a7c; stroke:none;" d="M78 93L79 94L78 93z"/>
<path style="fill:#629798; stroke:none;" d="M143 103L144 104L143 103z"/>
<path style="fill:#a1c1c2; stroke:none;" d="M144 103L144 104L149 104L144 103z"/>
<path style="fill:#629798; stroke:none;" d="M149 103L150 104L149 103z"/>
<path style="fill:#367a7c; stroke:none;" d="M78.3333 104.667L78.6667 105.333L78.3333 104.667z"/>
<path style="fill:#a1c1c2; stroke:none;" d="M141 104L142 105L141 104z"/>
<path style="fill:#ffffff; stroke:none;" d="M142 104.703C129.639 108.879 129.176 119.273 129.91 130C130.955 145.251 132.587 160.73 132.985 176C134.16 220.996 139.833 266.096 142.91 311C144.977 341.154 145.49 372.036 149.424 402C152.247 423.501 151.461 445.5 154.289 467C155.406 475.488 161.203 484.159 170.999 481.192C180.668 478.264 179.092 468.044 178.996 460C178.754 439.683 176.512 419.311 176.015 399C174.135 322.289 169.395 245.639 166.039 169C165.355 153.382 168.599 131.706 163.005 117C159.907 108.853 151.025 101.654 142 104.703z"/>
<path style="fill:#a1c1c2; stroke:none;" d="M151 104L152 105L151 104z"/>
<path style="fill:#629798; stroke:none;" d="M139 105L140 106L139 105M153 105L154 106L153 105z"/>
<path style="fill:#367a7c; stroke:none;" d="M228 105L229 106L228 105z"/>
<path style="fill:#629798; stroke:none;" d="M229 105L230 106L229 105z"/>
<path style="fill:#a1c1c2; stroke:none;" d="M230.667 105.333L231.333 105.667L230.667 105.333z"/>
<path style="fill:#ffffff; stroke:none;" d="M232 105.454C226.926 106.139 220.734 108.227 218.179 113.043C215.489 118.114 217 126.418 217 132L217 176C217 251.992 220 328.003 220 404C220 425.664 219.98 447.381 221.04 469C221.408 476.504 226.551 484.38 235 483.438C246.053 482.206 246 471.571 246 463C246 442.32 247 421.72 247 401C247 325.011 250 249.036 250 173C250 155.445 255.268 133.104 250.566 116.001C248.559 108.7 239.036 104.505 232 105.454z"/>
<path style="fill:#a1c1c2; stroke:none;" d="M237 105L238 106L237 105z"/>
<path style="fill:#629798; stroke:none;" d="M238 105L239 106L238 105M78 106L78 110L79 110L78 106z"/>
<path style="fill:#a1c1c2; stroke:none;" d="M138 106L139 107L138 106M154 106L155 107L154 106z"/>
<path style="fill:#367a7c; stroke:none;" d="M225 106L226 107L225 106z"/>
<path style="fill:#a1c1c2; stroke:none;" d="M226 106L227 107L226 106M240 106L241 107L240 106z"/>
<path style="fill:#629798; stroke:none;" d="M241 106L242 107L241 106M136 107L137 108L136 107z"/>
<path style="fill:#367a7c; stroke:none;" d="M156 107L157 108L156 107M223 107L224 108L223 107z"/>
<path style="fill:#a1c1c2; stroke:none;" d="M224 107L225 108L224 107z"/>
<path style="fill:#629798; stroke:none;" d="M243 107L244 108L243 107M135 108L136 109L135 108z"/>
<path style="fill:#367a7c; stroke:none;" d="M157 108L158 109L157 108z"/>
<path style="fill:#a1c1c2; stroke:none;" d="M222 108L223 109L222 108M244 108L245 109L244 108z"/>
<path style="fill:#367a7c; stroke:none;" d="M245 108L246 109L245 108z"/>
<path style="fill:#629798; stroke:none;" d="M316 108L317 109L316 108z"/>
<path style="fill:#a1c1c2; stroke:none;" d="M317.667 108.333L318.333 108.667L317.667 108.333z"/>
<path style="fill:#ffffff; stroke:none;" d="M319 108.479C313.216 109.385 307.336 112.327 305.009 118.004C301.944 125.483 303.18 136.042 302.985 144C302.692 155.992 301.005 167.988 301 180C300.982 219.922 296.786 260.119 295.039 300C293.517 334.756 294.361 370.456 290.285 405C287.911 425.124 285.303 450.886 287.819 471C288.6 477.251 294.701 482.324 301 481.771C311.842 480.819 311.75 470.171 312.715 462C315.103 441.767 314.899 421.226 317.285 401C326.172 325.683 325.829 249.304 334.715 174C336.083 162.406 336.063 150.622 337.17 139C337.75 132.908 339.588 125.013 338.106 119.001C336.23 111.383 326.183 107.354 319 108.479z"/>
<path style="fill:#a1c1c2; stroke:none;" d="M324.667 108.333L325.333 108.667L324.667 108.333z"/>
<path style="fill:#629798; stroke:none;" d="M326 108L327 109L326 108z"/>
<path style="fill:#a1c1c2; stroke:none;" d="M134 109L135 110L134 109z"/>
<path style="fill:#367a7c; stroke:none;" d="M158 109L159 110L158 109M220 109L221 110L220 109z"/>
<path style="fill:#629798; stroke:none;" d="M246 109L247 110L246 109M313 109L314 110L313 109z"/>
<path style="fill:#a1c1c2; stroke:none;" d="M314 109L315 110L314 109M328 109L329 110L328 109z"/>
<path style="fill:#367a7c; stroke:none;" d="M329 109L330 110L329 109z"/>
<path style="fill:#a1c1c2; stroke:none;" d="M78 110L78 114L79 114L78 110M133 110L134 111L133 110z"/>
<path style="fill:#367a7c; stroke:none;" d="M159 110L160 111L159 110M219 110L220 111L219 110z"/>
<path style="fill:#a1c1c2; stroke:none;" d="M247 110L248 111L247 110z"/>
<path style="fill:#367a7c; stroke:none;" d="M311 110L312 111L311 110z"/>
<path style="fill:#a1c1c2; stroke:none;" d="M330 110L331 111L330 110z"/>
<path style="fill:#367a7c; stroke:none;" d="M331 110L332 111L331 110M421.333 110.667L421.667 111.333L421.333 110.667z"/>
<path style="fill:#629798; stroke:none;" d="M132 111L133 112L132 111z"/>
<path style="fill:#367a7c; stroke:none;" d="M218 111L219 112L218 111z"/>
<path style="fill:#a1c1c2; stroke:none;" d="M248 111L249 112L248 111M310 111L311 112L310 111M332 111L333 112L332 111z"/>
<path style="fill:#629798; stroke:none;" d="M131 112L132 113L131 112z"/>
<path style="fill:#a1c1c2; stroke:none;" d="M160 112L161 113L160 112z"/>
<path style="fill:#629798; stroke:none;" d="M249 112L250 113L249 112z"/>
<path style="fill:#367a7c; stroke:none;" d="M308 112L309 113L308 112M334 112L335 113L334 112z"/>
<path style="fill:#629798; stroke:none;" d="M421 112L422 113L421 112M161 113L162 114L161 113z"/>
<path style="fill:#a1c1c2; stroke:none;" d="M217 113L218 114L217 113z"/>
<path style="fill:#367a7c; stroke:none;" d="M250 113L251 114L250 113M307 113L308 114L307 113z"/>
<path style="fill:#629798; stroke:none;" d="M335 113L336 114L335 113z"/>
<path style="fill:#367a7c; stroke:none;" d="M387 113L388 114L387 113z"/>
<path style="fill:#a1c1c2; stroke:none;" d="M421 113L422 114L421 113M130 114L131 115L130 114z"/>
<path style="fill:#367a7c; stroke:none;" d="M162 114L163 115L162 114M216 114L217 115L216 114z"/>
<path style="fill:#a1c1c2; stroke:none;" d="M250 114L251 115L250 114z"/>
<path style="fill:#367a7c; stroke:none;" d="M306 114L307 115L306 114z"/>
<path style="fill:#629798; stroke:none;" d="M336 114L337 115L336 114z"/>
<path style="fill:#a1c1c2; stroke:none;" d="M387 114L388 115L387 114M389.667 114.333L390.333 114.667L389.667 114.333z"/>
<path style="fill:#629798; stroke:none;" d="M391 114L392 115L391 114z"/>
<path style="fill:#367a7c; stroke:none;" d="M392 114L393 115L392 114z"/>
<path style="fill:#629798; stroke:none;" d="M420 114L421 115L420 114z"/>
<path style="fill:#367a7c; stroke:none;" d="M129 115L130 116L129 115z"/>
<path style="fill:#a1c1c2; stroke:none;" d="M162 115L163 116L162 115M216 115L216 151L217 151C217 140.613 220.011 124.56 216 115z"/>
<path style="fill:#367a7c; stroke:none;" d="M251 115L252 116L251 115M337 115L338 116L337 115z"/>
<path style="fill:#a1c1c2; stroke:none;" d="M394 115L395 116L394 115z"/>
<path style="fill:#629798; stroke:none;" d="M395 115L396 116L395 115z"/>
<path style="fill:#367a7c; stroke:none;" d="M396 115L397 116L396 115z"/>
<path style="fill:#629798; stroke:none;" d="M419 115L420 116L419 115z"/>
<path style="fill:#a1c1c2; stroke:none;" d="M129 116L130 117L129 116z"/>
<path style="fill:#367a7c; stroke:none;" d="M163 116L164 117L163 116z"/>
<path style="fill:#629798; stroke:none;" d="M251 116L251 125L252 125L251 116z"/>
<path style="fill:#a1c1c2; stroke:none;" d="M305 116L306 117L305 116M337 116L338 117L337 116M398 116L399 117L398 116z"/>
<path style="fill:#629798; stroke:none;" d="M399 116L400 117L399 116z"/>
<path style="fill:#367a7c; stroke:none;" d="M400 116L401 117L400 116z"/>
<path style="fill:#a1c1c2; stroke:none;" d="M418 116L419 117L418 116M163 117L164 118L163 117z"/>
<path style="fill:#367a7c; stroke:none;" d="M304 117L305 118L304 117M338 117L339 118L338 117z"/>
<path style="fill:#a1c1c2; stroke:none;" d="M402.667 117.333L403.333 117.667L402.667 117.333z"/>
<path style="fill:#367a7c; stroke:none;" d="M404 117L405 118L404 117M414 117L415 118L414 117z"/>
<path style="fill:#629798; stroke:none;" d="M415 117L416 118L415 117z"/>
<path style="fill:#a1c1c2; stroke:none;" d="M416 117L417 118L416 117z"/>
<path style="fill:#367a7c; stroke:none;" d="M79 118L79 121L80 121L79 118M128 118L128 122L129 122L128 118z"/>
<path style="fill:#a1c1c2; stroke:none;" d="M304 118L305 119L304 118M338.333 118.667L338.667 119.333L338.333 118.667z"/>
<path style="fill:#367a7c; stroke:none;" d="M386.333 118.667L386.667 119.333L386.333 118.667z"/>
<path style="fill:#a1c1c2; stroke:none;" d="M408 118L408 119L413 119L408 118z"/>
<path style="fill:#367a7c; stroke:none;" d="M164 119L165 120L164 119z"/>
<path style="fill:#629798; stroke:none;" d="M164 120L164 123L165 123L164 120z"/>
<path style="fill:#367a7c; stroke:none;" d="M303 120L304 121L303 120z"/>
<path style="fill:#629798; stroke:none;" d="M386 120L386 123L387 123L386 120M79 121L79 124L80 124L79 121M303 121L303 125L304 125L303 121z"/>
<path style="fill:#a1c1c2; stroke:none;" d="M338 122L338 126L339 126L338 122M164 123L164 130L165 130L164 123M386 123L386 127L387 127L386 123M79 124L79 128L80 128L79 124z"/>
<path style="fill:#367a7c; stroke:none;" d="M251 125L251 139L252 139L251 125z"/>
<path style="fill:#a1c1c2; stroke:none;" d="M303 125L303 130L304 130L303 125M129 126L129 131L130 131L129 126z"/>
<path style="fill:#629798; stroke:none;" d="M338 126L338 129L339 129L338 126z"/>
<path style="fill:#367a7c; stroke:none;" d="M338 129L338 132L339 132L338 129z"/>
<path style="fill:#629798; stroke:none;" d="M129 131L129 134L130 134L129 131z"/>
<path style="fill:#367a7c; stroke:none;" d="M385.333 131.667L385.667 132.333L385.333 131.667M80 132L80 135L81 135L80 132z"/>
<path style="fill:#629798; stroke:none;" d="M385 133L385 136L386 136L385 133z"/>
<path style="fill:#367a7c; stroke:none;" d="M129 134L129 137L130 137L129 134z"/>
<path style="fill:#629798; stroke:none;" d="M80 135L80 138L81 138L80 135z"/>
<path style="fill:#367a7c; stroke:none;" d="M165 136L165 140L166 140L165 136M302 136L302 139L303 139L302 136z"/>
<path style="fill:#a1c1c2; stroke:none;" d="M337 136L337 140L338 140L337 136M385 136L385 140L386 140L385 136M80 138L80 142L81 142L80 138z"/>
<path style="fill:#629798; stroke:none;" d="M302 139L302 143L303 143L302 139M165 140L165 145L166 145L165 140M337 140L337 143L338 143L337 140z"/>
<path style="fill:#a1c1c2; stroke:none;" d="M130 141L130 145L131 145L130 141M302 143L302 150L303 150L302 143z"/>
<path style="fill:#367a7c; stroke:none;" d="M337.333 143.667L337.667 144.333L337.333 143.667M384.333 144.667L384.667 145.333L384.333 144.667z"/>
<path style="fill:#629798; stroke:none;" d="M130 145L130 149L131 149L130 145z"/>
<path style="fill:#a1c1c2; stroke:none;" d="M165 145L165 152L166 152L165 145z"/>
<path style="fill:#367a7c; stroke:none;" d="M81 146L81 149L82 149L81 146z"/>
<path style="fill:#629798; stroke:none;" d="M384 146L384 149L385 149L384 146M81 149L81 152L82 152L81 149z"/>
<path style="fill:#367a7c; stroke:none;" d="M130.333 149.667L130.667 150.333L130.333 149.667z"/>
<path style="fill:#a1c1c2; stroke:none;" d="M336 149L336 153L337 153L336 149M384 149L384 153L385 153L384 149z"/>
<path style="fill:#629798; stroke:none;" d="M216 151L216 169L217 169L216 151z"/>
<path style="fill:#a1c1c2; stroke:none;" d="M81 152L81 156L82 156L81 152z"/>
<path style="fill:#629798; stroke:none;" d="M336 153L336 156L337 156L336 153z"/>
<path style="fill:#367a7c; stroke:none;" d="M301 155L301 159L302 159L301 155z"/>
<path style="fill:#a1c1c2; stroke:none;" d="M131 156L131 160L132 160L131 156z"/>
<path style="fill:#367a7c; stroke:none;" d="M336 156L336 159L337 159L336 156M383.333 157.667L383.667 158.333L383.333 157.667M166 159L166 163L167 163L166 159z"/>
<path style="fill:#a1c1c2; stroke:none;" d="M250 159L250 183L251 183L250 159z"/>
<path style="fill:#629798; stroke:none;" d="M301 159L301 163L302 163L301 159M383 159L383 162L384 162L383 159z"/>
<path style="fill:#367a7c; stroke:none;" d="M82 160L82 163L83 163L82 160z"/>
<path style="fill:#629798; stroke:none;" d="M131 160L131 163L132 163L131 160z"/>
<path style="fill:#a1c1c2; stroke:none;" d="M335 162L335 166L336 166L335 162M383 162L383 166L384 166L383 162z"/>
<path style="fill:#629798; stroke:none;" d="M82 163L82 166L83 166L82 163z"/>
<path style="fill:#367a7c; stroke:none;" d="M131 163L131 166L132 166L131 163z"/>
<path style="fill:#629798; stroke:none;" d="M166 163L166 167L167 167L166 163z"/>
<path style="fill:#a1c1c2; stroke:none;" d="M301 163L301 170L302 170L301 163M82 166L82 170L83 170L82 166z"/>
<path style="fill:#629798; stroke:none;" d="M335 166L335 169L336 169L335 166z"/>
<path style="fill:#a1c1c2; stroke:none;" d="M166 167L166 174L167 174L166 167z"/>
<path style="fill:#367a7c; stroke:none;" d="M216 169L216 184L217 184L216 169M335 169L335 172L336 172L335 169z"/>
<path style="fill:#a1c1c2; stroke:none;" d="M132 170L132 174L133 174L132 170z"/>
<path style="fill:#367a7c; stroke:none;" d="M382.333 170.667L382.667 171.333L382.333 170.667z"/>
<path style="fill:#629798; stroke:none;" d="M382 172L382 175L383 175L382 172z"/>
<path style="fill:#367a7c; stroke:none;" d="M83.3333 174.667L83.6667 175.333L83.3333 174.667z"/>
<path style="fill:#629798; stroke:none;" d="M132 174L132 177L133 177L132 174z"/>
<path style="fill:#a1c1c2; stroke:none;" d="M334 175L334 180L335 180L334 175M382 175L382 179L383 179L382 175z"/>
<path style="fill:#629798; stroke:none;" d="M83 176L83 179L84 179L83 176z"/>
<path style="fill:#367a7c; stroke:none;" d="M300 176L300 180L301 180L300 176M132.333 177.667L132.667 178.333L132.333 177.667z"/>
<path style="fill:#a1c1c2; stroke:none;" d="M83 179L83 184L84 184L83 179z"/>
<path style="fill:#629798; stroke:none;" d="M300 180L300 184L301 184L300 180M334.333 180.667L334.667 181.333L334.333 180.667z"/>
<path style="fill:#367a7c; stroke:none;" d="M167 181L167 185L168 185L167 181M334 182L334 185L335 185L334 182z"/>
<path style="fill:#629798; stroke:none;" d="M250 183L250 198L251 198L250 183z"/>
<path style="fill:#367a7c; stroke:none;" d="M381.333 183.667L381.667 184.333L381.333 183.667z"/>
<path style="fill:#a1c1c2; stroke:none;" d="M133 184L133 188L134 188L133 184M300 184L300 190L301 190L300 184z"/>
<path style="fill:#629798; stroke:none;" d="M167 185L167 190L168 190L167 185M381 185L381 188L382 188L381 185z"/>
<path style="fill:#367a7c; stroke:none;" d="M84.3333 188.667L84.6667 189.333L84.3333 188.667z"/>
<path style="fill:#629798; stroke:none;" d="M133 188L133 191L134 191L133 188z"/>
<path style="fill:#a1c1c2; stroke:none;" d="M381 188L381 192L382 192L381 188M333 189L333 193L334 193L333 189z"/>
<path style="fill:#629798; stroke:none;" d="M84 190L84 193L85 193L84 190z"/>
<path style="fill:#a1c1c2; stroke:none;" d="M167 190L167 197L168 197L167 190z"/>
<path style="fill:#367a7c; stroke:none;" d="M133 191L133 194L134 194L133 191z"/>
<path style="fill:#a1c1c2; stroke:none;" d="M84 193L84 197L85 197L84 193z"/>
<path style="fill:#629798; stroke:none;" d="M333 193L333 196L334 196L333 193z"/>
<path style="fill:#367a7c; stroke:none;" d="M299 196L299 200L300 200L299 196M333.333 196.667L333.667 197.333L333.333 196.667M380.333 196.667L380.667 197.333L380.333 196.667z"/>
<path style="fill:#a1c1c2; stroke:none;" d="M134 198L134 202L135 202L134 198z"/>
<path style="fill:#367a7c; stroke:none;" d="M250 198L250 212L251 212L250 198z"/>
<path style="fill:#629798; stroke:none;" d="M380 198L380 201L381 201L380 198M299 200L299 205L300 205L299 200z"/>
<path style="fill:#367a7c; stroke:none;" d="M85 201L85 204L86 204L85 201z"/>
<path style="fill:#a1c1c2; stroke:none;" d="M380 201L380 205L381 205L380 201z"/>
<path style="fill:#629798; stroke:none;" d="M134 202L134 205L135 205L134 202z"/>
<path style="fill:#a1c1c2; stroke:none;" d="M332 202L332 206L333 206L332 202z"/>
<path style="fill:#367a7c; stroke:none;" d="M168 203L168 208L169 208L168 203z"/>
<path style="fill:#629798; stroke:none;" d="M85 204L85 207L86 207L85 204z"/>
<path style="fill:#367a7c; stroke:none;" d="M134 205L134 208L135 208L134 205z"/>
<path style="fill:#a1c1c2; stroke:none;" d="M299 205L299 211L300 211L299 205z"/>
<path style="fill:#629798; stroke:none;" d="M332 206L332 209L333 209L332 206z"/>
<path style="fill:#a1c1c2; stroke:none;" d="M85 207L85 211L86 211L85 207z"/>
<path style="fill:#629798; stroke:none;" d="M168 208L168 213L169 213L168 208z"/>
<path style="fill:#a1c1c2; stroke:none;" d="M217 208L217 232L218 232L217 208z"/>
<path style="fill:#367a7c; stroke:none;" d="M332.333 209.667L332.667 210.333L332.333 209.667M379.333 209.667L379.667 210.333L379.333 209.667z"/>
<path style="fill:#629798; stroke:none;" d="M379 211L379 214L380 214L379 211z"/>
<path style="fill:#a1c1c2; stroke:none;" d="M135 212L135 216L136 216L135 212M168 213L168 220L169 220L168 213M379 214L379 218L380 218L379 214z"/>
<path style="fill:#367a7c; stroke:none;" d="M86.3333 215.667L86.6667 216.333L86.3333 215.667z"/>
<path style="fill:#a1c1c2; stroke:none;" d="M331 215L331 219L332 219L331 215z"/>
<path style="fill:#629798; stroke:none;" d="M135 216L135 219L136 219L135 216M86 217L86 221L87 221L86 217z"/>
<path style="fill:#367a7c; stroke:none;" d="M298 217L298 221L299 221L298 217M135.333 219.667L135.667 220.333L135.333 219.667z"/>
<path style="fill:#629798; stroke:none;" d="M331 219L331 222L332 222L331 219z"/>
<path style="fill:#a1c1c2; stroke:none;" d="M86 221L86 225L87 225L86 221z"/>
<path style="fill:#629798; stroke:none;" d="M298 221L298 226L299 226L298 221z"/>
<path style="fill:#367a7c; stroke:none;" d="M331.333 222.667L331.667 223.333L331.333 222.667M378.333 222.667L378.667 223.333L378.333 222.667z"/>
<path style="fill:#629798; stroke:none;" d="M378 224L378 227L379 227L378 224z"/>
<path style="fill:#a1c1c2; stroke:none;" d="M136 225L136 230L137 230L136 225z"/>
<path style="fill:#367a7c; stroke:none;" d="M169 226L169 230L170 230L169 226z"/>
<path style="fill:#a1c1c2; stroke:none;" d="M298 226L298 232L299 232L298 226M378 227L378 231L379 231L378 227M330 228L330 233L331 233L330 228z"/>
<path style="fill:#367a7c; stroke:none;" d="M87.3333 229.667L87.6667 230.333L87.3333 229.667z"/>
<path style="fill:#629798; stroke:none;" d="M136.333 230.667L136.667 231.333L136.333 230.667M169 230L169 235L170 235L169 230M87 231L87 234L88 234L87 231z"/>
<path style="fill:#367a7c; stroke:none;" d="M136 232L136 235L137 235L136 232z"/>
<path style="fill:#629798; stroke:none;" d="M217 232L217 250L218 250L217 232z"/>
<path style="fill:#a1c1c2; stroke:none;" d="M249 233L249 256L250 256L249 233z"/>
<path style="fill:#629798; stroke:none;" d="M330.333 233.667L330.667 234.333L330.333 233.667z"/>
<path style="fill:#a1c1c2; stroke:none;" d="M87 234L87 238L88 238L87 234M169 235L169 242L170 242L169 235z"/>
<path style="fill:#367a7c; stroke:none;" d="M330 235L330 238L331 238L330 235M377 235L377 238L378 238L377 235M297 238L297 242L298 242L297 238z"/>
<path style="fill:#629798; stroke:none;" d="M377 238L377 241L378 241L377 238z"/>
<path style="fill:#a1c1c2; stroke:none;" d="M137 239L137 243L138 243L137 239M377 241L377 245L378 245L377 241z"/>
<path style="fill:#367a7c; stroke:none;" d="M88 242L88 245L89 245L88 242z"/>
<path style="fill:#629798; stroke:none;" d="M297 242L297 247L298 247L297 242z"/>
<path style="fill:#a1c1c2; stroke:none;" d="M329 242L329 246L330 246L329 242z"/>
<path style="fill:#629798; stroke:none;" d="M137 243L137 246L138 246L137 243M88 245L88 248L89 248L88 245z"/>
<path style="fill:#367a7c; stroke:none;" d="M137 246L137 249L138 249L137 246z"/>
<path style="fill:#629798; stroke:none;" d="M329 246L329 249L330 249L329 246z"/>
<path style="fill:#a1c1c2; stroke:none;" d="M297 247L297 253L298 253L297 247M88 248L88 252L89 252L88 248z"/>
<path style="fill:#367a7c; stroke:none;" d="M170 249L170 253L171 253L170 249M329.333 249.667L329.667 250.333L329.333 249.667M376.333 249.667L376.667 250.333L376.333 249.667M217 250L217 265L218 265L217 250z"/>
<path style="fill:#629798; stroke:none;" d="M376 251L376 254L377 254L376 251z"/>
<path style="fill:#a1c1c2; stroke:none;" d="M138 253L138 257L139 257L138 253z"/>
<path style="fill:#629798; stroke:none;" d="M170 253L170 258L171 258L170 253z"/>
<path style="fill:#a1c1c2; stroke:none;" d="M376 254L376 258L377 258L376 254M328 255L328 259L329 259L328 255z"/>
<path style="fill:#367a7c; stroke:none;" d="M89 256L89 259L90 259L89 256z"/>
<path style="fill:#629798; stroke:none;" d="M249 256L249 272L250 272L249 256M138 257L138 260L139 260L138 257z"/>
<path style="fill:#a1c1c2; stroke:none;" d="M170 258L170 265L171 265L170 258z"/>
<path style="fill:#629798; stroke:none;" d="M89.3333 259.667L89.6667 260.333L89.3333 259.667M328 259L328 262L329 262L328 259z"/>
<path style="fill:#367a7c; stroke:none;" d="M138.333 260.667L138.667 261.333L138.333 260.667M296 260L296 264L297 264L296 260z"/>
<path style="fill:#a1c1c2; stroke:none;" d="M89 261L89 266L90 266L89 261z"/>
<path style="fill:#367a7c; stroke:none;" d="M328.333 262.667L328.667 263.333L328.333 262.667M375.333 262.667L375.667 263.333L375.333 262.667z"/>
<path style="fill:#629798; stroke:none;" d="M296 264L296 268L297 268L296 264M375 264L375 267L376 267L375 264z"/>
<path style="fill:#a1c1c2; stroke:none;" d="M139 266L139 271L140 271L139 266M375 267L375 271L376 271L375 267M296 268L296 275L297 275L296 268M327 268L327 272L328 272L327 268z"/>
<path style="fill:#367a7c; stroke:none;" d="M90.3333 270.667L90.6667 271.333L90.3333 270.667z"/>
<path style="fill:#629798; stroke:none;" d="M139 271L139 274L140 274L139 271M90 272L90 275L91 275L90 272z"/>
<path style="fill:#367a7c; stroke:none;" d="M171 272L171 276L172 276L171 272M249 272L249 285L250 285L249 272z"/>
<path style="fill:#629798; stroke:none;" d="M327 272L327 275L328 275L327 272z"/>
<path style="fill:#367a7c; stroke:none;" d="M139.333 274.667L139.667 275.333L139.333 274.667z"/>
<path style="fill:#a1c1c2; stroke:none;" d="M90 275L90 279L91 279L90 275z"/>
<path style="fill:#367a7c; stroke:none;" d="M327 275L327 278L328 278L327 275M374.333 275.667L374.667 276.333L374.333 275.667z"/>
<path style="fill:#629798; stroke:none;" d="M171 276L171 281L172 281L171 276M374 277L374 280L375 280L374 277z"/>
<path style="fill:#a1c1c2; stroke:none;" d="M140 280L140 284L141 284L140 280M374 280L374 284L375 284L374 280M171 281L171 288L172 288L171 281z"/>
<path style="fill:#367a7c; stroke:none;" d="M295 281L295 285L296 285L295 281z"/>
<path style="fill:#a1c1c2; stroke:none;" d="M326 281L326 286L327 286L326 281z"/>
<path style="fill:#367a7c; stroke:none;" d="M91 283L91 286L92 286L91 283z"/>
<path style="fill:#629798; stroke:none;" d="M140 284L140 287L141 287L140 284M295 285L295 290L296 290L295 285M91 286L91 289L92 289L91 286M326.333 286.667L326.667 287.333L326.333 286.667z"/>
<path style="fill:#367a7c; stroke:none;" d="M140 287L140 290L141 290L140 287z"/>
<path style="fill:#a1c1c2; stroke:none;" d="M218 288L218 311L219 311L218 288z"/>
<path style="fill:#367a7c; stroke:none;" d="M326 288L326 291L327 291L326 288M373.333 288.667L373.667 289.333L373.333 288.667z"/>
<path style="fill:#a1c1c2; stroke:none;" d="M91 289L91 293L92 293L91 289M295 290L295 296L296 296L295 290z"/>
<path style="fill:#629798; stroke:none;" d="M373 290L373 295L374 295L373 290z"/>
<path style="fill:#a1c1c2; stroke:none;" d="M141 294L141 298L142 298L141 294z"/>
<path style="fill:#367a7c; stroke:none;" d="M172 295L172 299L173 299L172 295z"/>
<path style="fill:#a1c1c2; stroke:none;" d="M325 295L325 299L326 299L325 295M373 295L373 301L374 301L373 295z"/>
<path style="fill:#367a7c; stroke:none;" d="M92.3333 297.667L92.6667 298.333L92.3333 297.667z"/>
<path style="fill:#629798; stroke:none;" d="M141 298L141 301L142 301L141 298M92 299L92 302L93 302L92 299M172 299L172 304L173 304L172 299M325 299L325 302L326 302L325 299z"/>
<path style="fill:#367a7c; stroke:none;" d="M141.333 301.667L141.667 302.333L141.333 301.667z"/>
<path style="fill:#a1c1c2; stroke:none;" d="M92 302L92 306L93 306L92 302z"/>
<path style="fill:#367a7c; stroke:none;" d="M325.333 302.667L325.667 303.333L325.333 302.667M294 303L294 307L295 307L294 303z"/>
<path style="fill:#a1c1c2; stroke:none;" d="M172 304L172 311L173 311L172 304z"/>
<path style="fill:#367a7c; stroke:none;" d="M372.333 305.667L372.667 306.333L372.333 305.667z"/>
<path style="fill:#a1c1c2; stroke:none;" d="M248 306L248 327L249 327L248 306M142 307L142 311L143 311L142 307z"/>
<path style="fill:#629798; stroke:none;" d="M294 307L294 311L295 311L294 307M372 307L372 310L373 310L372 307z"/>
<path style="fill:#a1c1c2; stroke:none;" d="M324 308L324 312L325 312L324 308z"/>
<path style="fill:#367a7c; stroke:none;" d="M93 310L93 313L94 313L93 310z"/>
<path style="fill:#a1c1c2; stroke:none;" d="M372 310L372 314L373 314L372 310z"/>
<path style="fill:#629798; stroke:none;" d="M142 311L142 314L143 314L142 311M218 311L218 326L219 326L218 311z"/>
<path style="fill:#a1c1c2; stroke:none;" d="M294 311L294 318L295 318L294 311z"/>
<path style="fill:#629798; stroke:none;" d="M324 312L324 315L325 315L324 312M93 313L93 316L94 316L93 313z"/>
<path style="fill:#367a7c; stroke:none;" d="M142 314L142 317L143 317L142 314M324.333 315.667L324.667 316.333L324.333 315.667z"/>
<path style="fill:#a1c1c2; stroke:none;" d="M93 316L93 320L94 320L93 316z"/>
<path style="fill:#367a7c; stroke:none;" d="M173 318L173 322L174 322L173 318M371.333 318.667L371.667 319.333L371.333 318.667z"/>
<path style="fill:#629798; stroke:none;" d="M371 320L371 323L372 323L371 320z"/>
<path style="fill:#a1c1c2; stroke:none;" d="M143 321L143 325L144 325L143 321M323 321L323 325L324 325L323 321z"/>
<path style="fill:#629798; stroke:none;" d="M173 322L173 327L174 327L173 322z"/>
<path style="fill:#a1c1c2; stroke:none;" d="M371 323L371 327L372 327L371 323z"/>
<path style="fill:#367a7c; stroke:none;" d="M94 324L94 327L95 327L94 324M293 324L293 328L294 328L293 324z"/>
<path style="fill:#629798; stroke:none;" d="M143 325L143 328L144 328L143 325M323 325L323 328L324 328L323 325z"/>
<path style="fill:#367a7c; stroke:none;" d="M218 326L218 342L219 342L218 326z"/>
<path style="fill:#629798; stroke:none;" d="M94.3333 327.667L94.6667 328.333L94.3333 327.667z"/>
<path style="fill:#a1c1c2; stroke:none;" d="M173 327L173 334L174 334L173 327z"/>
<path style="fill:#629798; stroke:none;" d="M248 327L248 342L249 342L248 327z"/>
<path style="fill:#367a7c; stroke:none;" d="M143.333 328.667L143.667 329.333L143.333 328.667z"/>
<path style="fill:#629798; stroke:none;" d="M293 328L293 333L294 333L293 328z"/>
<path style="fill:#367a7c; stroke:none;" d="M323.333 328.667L323.667 329.333L323.333 328.667z"/>
<path style="fill:#a1c1c2; stroke:none;" d="M94 329L94 334L95 334L94 329z"/>
<path style="fill:#367a7c; stroke:none;" d="M370 331L370 334L371 334L370 331z"/>
<path style="fill:#a1c1c2; stroke:none;" d="M293 333L293 339L294 339L293 333M144 334L144 338L145 338L144 334M322 334L322 338L323 338L322 334z"/>
<path style="fill:#629798; stroke:none;" d="M370.333 334.667L370.667 335.333L370.333 334.667z"/>
<path style="fill:#a1c1c2; stroke:none;" d="M370 336L370 340L371 340L370 336z"/>
<path style="fill:#367a7c; stroke:none;" d="M95.3333 338.667L95.6667 339.333L95.3333 338.667z"/>
<path style="fill:#629798; stroke:none;" d="M144 338L144 341L145 341L144 338M322 338L322 341L323 341L322 338M95 340L95 343L96 343L95 340z"/>
<path style="fill:#367a7c; stroke:none;" d="M144 341L144 344L145 344L144 341M174 341L174 345L175 345L174 341M322.333 341.667L322.667 342.333L322.333 341.667M248 342L248 355L249 355L248 342z"/>
<path style="fill:#a1c1c2; stroke:none;" d="M95 343L95 347L96 347L95 343z"/>
<path style="fill:#367a7c; stroke:none;" d="M369 344L369 347L370 347L369 344z"/>
<path style="fill:#629798; stroke:none;" d="M174 345L174 350L175 350L174 345z"/>
<path style="fill:#367a7c; stroke:none;" d="M292 345L292 349L293 349L292 345z"/>
<path style="fill:#a1c1c2; stroke:none;" d="M321 347L321 351L322 351L321 347z"/>
<path style="fill:#629798; stroke:none;" d="M369 347L369 350L370 350L369 347z"/>
<path style="fill:#a1c1c2; stroke:none;" d="M145 348L145 352L146 352L145 348z"/>
<path style="fill:#629798; stroke:none;" d="M292 349L292 354L293 354L292 349z"/>
<path style="fill:#a1c1c2; stroke:none;" d="M174 350L174 358L175 358L174 350M369 350L369 354L370 354L369 350z"/>
<path style="fill:#367a7c; stroke:none;" d="M96 351L96 354L97 354L96 351z"/>
<path style="fill:#629798; stroke:none;" d="M321 351L321 354L322 354L321 351M145 352L145 355L146 355L145 352M96 354L96 357L97 357L96 354z"/>
<path style="fill:#a1c1c2; stroke:none;" d="M292 354L292 361L293 361L292 354z"/>
<path style="fill:#367a7c; stroke:none;" d="M321.333 354.667L321.667 355.333L321.333 354.667M145.333 355.667L145.667 356.333L145.333 355.667z"/>
<path style="fill:#a1c1c2; stroke:none;" d="M96 357L96 361L97 361L96 357z"/>
<path style="fill:#367a7c; stroke:none;" d="M368.333 358.667L368.667 359.333L368.333 358.667z"/>
<path style="fill:#a1c1c2; stroke:none;" d="M320 360L320 364L321 364L320 360z"/>
<path style="fill:#629798; stroke:none;" d="M368 360L368 363L369 363L368 360z"/>
<path style="fill:#a1c1c2; stroke:none;" d="M146 361L146 366L147 366L146 361M368 363L368 367L369 367L368 363z"/>
<path style="fill:#367a7c; stroke:none;" d="M175 364L175 369L176 369L175 364z"/>
<path style="fill:#629798; stroke:none;" d="M320 364L320 367L321 367L320 364z"/>
<path style="fill:#367a7c; stroke:none;" d="M97.3333 365.667L97.6667 366.333L97.3333 365.667z"/>
<path style="fill:#a1c1c2; stroke:none;" d="M219 365L219 389L220 389L219 365z"/>
<path style="fill:#629798; stroke:none;" d="M146 366L146 369L147 369L146 366M97 367L97 370L98 370L97 367z"/>
<path style="fill:#367a7c; stroke:none;" d="M291 367L291 371L292 371L291 367M320.333 367.667L320.667 368.333L320.333 367.667M146.333 369.667L146.667 370.333L146.333 369.667z"/>
<path style="fill:#629798; stroke:none;" d="M175 369L175 374L176 374L175 369z"/>
<path style="fill:#a1c1c2; stroke:none;" d="M97 370L97 374L98 374L97 370z"/>
<path style="fill:#629798; stroke:none;" d="M291 371L291 376L292 376L291 371z"/>
<path style="fill:#367a7c; stroke:none;" d="M367.333 371.667L367.667 372.333L367.333 371.667z"/>
<path style="fill:#a1c1c2; stroke:none;" d="M319 373L319 377L320 377L319 373z"/>
<path style="fill:#629798; stroke:none;" d="M367 373L367 376L368 376L367 373z"/>
<path style="fill:#a1c1c2; stroke:none;" d="M175 374L175 381L176 381L175 374M147 375L147 379L148 379L147 375M247 375L247 396L248 396L247 375M291 376L291 382L292 382L291 376M367 376L367 380L368 380L367 376z"/>
<path style="fill:#629798; stroke:none;" d="M319 377L319 380L320 380L319 377z"/>
<path style="fill:#367a7c; stroke:none;" d="M98 378L98 381L99 381L98 378z"/>
<path style="fill:#629798; stroke:none;" d="M147 379L147 382L148 382L147 379z"/>
<path style="fill:#367a7c; stroke:none;" d="M319.333 380.667L319.667 381.333L319.333 380.667z"/>
<path style="fill:#629798; stroke:none;" d="M98 381L98 384L99 384L98 381z"/>
<path style="fill:#367a7c; stroke:none;" d="M147 382L147 385L148 385L147 382z"/>
<path style="fill:#a1c1c2; stroke:none;" d="M98 384L98 388L99 388L98 384z"/>
<path style="fill:#367a7c; stroke:none;" d="M366.333 384.667L366.667 385.333L366.333 384.667z"/>
<path style="fill:#a1c1c2; stroke:none;" d="M318 386L318 390L319 390L318 386z"/>
<path style="fill:#629798; stroke:none;" d="M366 386L366 389L367 389L366 386z"/>
<path style="fill:#a1c1c2; stroke:none;" d="M148 388L148 393L149 393L148 388z"/>
<path style="fill:#367a7c; stroke:none;" d="M176 388L176 392L177 392L176 388z"/>
<path style="fill:#629798; stroke:none;" d="M219 389L219 405L220 405L219 389z"/>
<path style="fill:#367a7c; stroke:none;" d="M290 389L290 393L291 393L290 389z"/>
<path style="fill:#a1c1c2; stroke:none;" d="M366 389L366 393L367 393L366 389z"/>
<path style="fill:#629798; stroke:none;" d="M318 390L318 393L319 393L318 390z"/>
<path style="fill:#367a7c; stroke:none;" d="M99 392L99 395L100 395L99 392z"/>
<path style="fill:#629798; stroke:none;" d="M176 392L176 397L177 397L176 392M148.333 393.667L148.667 394.333L148.333 393.667M290 393L290 397L291 397L290 393z"/>
<path style="fill:#367a7c; stroke:none;" d="M318.333 393.667L318.667 394.333L318.333 393.667z"/>
<path style="fill:#629798; stroke:none;" d="M99.3333 395.667L99.6667 396.333L99.3333 395.667z"/>
<path style="fill:#367a7c; stroke:none;" d="M148 395L148 398L149 398L148 395z"/>
<path style="fill:#629798; stroke:none;" d="M247 396L247 410L248 410L247 396z"/>
<path style="fill:#a1c1c2; stroke:none;" d="M99 397L99 402L100 402L99 397M176 397L176 405L177 405L176 397M290 397L290 404L291 404L290 397z"/>
<path style="fill:#367a7c; stroke:none;" d="M365.333 397.667L365.667 398.333L365.333 397.667z"/>
<path style="fill:#a1c1c2; stroke:none;" d="M317 399L317 403L318 403L317 399z"/>
<path style="fill:#629798; stroke:none;" d="M365 399L365 402L366 402L365 399z"/>
<path style="fill:#a1c1c2; stroke:none;" d="M149 402L149 406L150 406L149 402M365 402L365 406L366 406L365 402z"/>
<path style="fill:#629798; stroke:none;" d="M317 403L317 406L318 406L317 403z"/>
<path style="fill:#367a7c; stroke:none;" d="M219 405L219 420L220 420L219 405M100.333 406.667L100.667 407.333L100.333 406.667z"/>
<path style="fill:#629798; stroke:none;" d="M149 406L149 409L150 409L149 406z"/>
<path style="fill:#367a7c; stroke:none;" d="M317.333 406.667L317.667 407.333L317.333 406.667z"/>
<path style="fill:#629798; stroke:none;" d="M100 408L100 411L101 411L100 408z"/>
<path style="fill:#367a7c; stroke:none;" d="M149 409L149 412L150 412L149 409M247 410L247 423L248 423L247 410M289 410L289 414L290 414L289 410M364.333 410.667L364.667 411.333L364.333 410.667z"/>
<path style="fill:#a1c1c2; stroke:none;" d="M100 411L100 415L101 415L100 411z"/>
<path style="fill:#367a7c; stroke:none;" d="M177 412L177 416L178 416L177 412z"/>
<path style="fill:#a1c1c2; stroke:none;" d="M316 412L316 416L317 416L316 412z"/>
<path style="fill:#629798; stroke:none;" d="M364 412L364 415L365 415L364 412M289 414L289 419L290 419L289 414z"/>
<path style="fill:#a1c1c2; stroke:none;" d="M364 415L364 419L365 419L364 415M150 416L150 420L151 420L150 416z"/>
<path style="fill:#629798; stroke:none;" d="M177 416L177 421L178 421L177 416M316 416L316 419L317 419L316 416z"/>
<path style="fill:#367a7c; stroke:none;" d="M101 419L101 422L102 422L101 419z"/>
<path style="fill:#a1c1c2; stroke:none;" d="M289 419L289 426L290 426L289 419z"/>
<path style="fill:#367a7c; stroke:none;" d="M316.333 419.667L316.667 420.333L316.333 419.667z"/>
<path style="fill:#629798; stroke:none;" d="M150 420L150 423L151 423L150 420z"/>
<path style="fill:#a1c1c2; stroke:none;" d="M177 421L177 429L178 429L177 421z"/>
<path style="fill:#629798; stroke:none;" d="M101 422L101 425L102 425L101 422z"/>
<path style="fill:#367a7c; stroke:none;" d="M150.333 423.667L150.667 424.333L150.333 423.667M363.333 423.667L363.667 424.333L363.333 423.667z"/>
<path style="fill:#a1c1c2; stroke:none;" d="M101 425L101 429L102 429L101 425M315 425L315 429L316 429L315 425z"/>
<path style="fill:#629798; stroke:none;" d="M363 425L363 428L364 428L363 425z"/>
<path style="fill:#a1c1c2; stroke:none;" d="M363 428L363 432L364 432L363 428M151 429L151 433L152 433L151 429z"/>
<path style="fill:#629798; stroke:none;" d="M315 429L315 432L316 432L315 429z"/>
<path style="fill:#367a7c; stroke:none;" d="M288 432L288 436L289 436L288 432M315.333 432.667L315.667 433.333L315.333 432.667M102.333 433.667L102.667 434.333L102.333 433.667z"/>
<path style="fill:#629798; stroke:none;" d="M151 433L151 436L152 436L151 433M102 435L102 438L103 438L102 435z"/>
<path style="fill:#367a7c; stroke:none;" d="M151.333 436.667L151.667 437.333L151.333 436.667M178 436L178 441L179 441L178 436z"/>
<path style="fill:#629798; stroke:none;" d="M288 436L288 441L289 441L288 436z"/>
<path style="fill:#367a7c; stroke:none;" d="M362.333 436.667L362.667 437.333L362.333 436.667z"/>
<path style="fill:#a1c1c2; stroke:none;" d="M102 438L102 442L103 442L102 438M314 438L314 442L315 442L314 438z"/>
<path style="fill:#629798; stroke:none;" d="M362 438L362 441L363 441L362 438M178 441L178 446L179 446L178 441z"/>
<path style="fill:#a1c1c2; stroke:none;" d="M246 441L246 457L247 457L246 441M288 441L288 448L289 448L288 441M362 441L362 445L363 445L362 441M152 442L152 446L153 446L152 442M220 442L220 466L221 466L220 442z"/>
<path style="fill:#629798; stroke:none;" d="M314 442L314 445L315 445L314 442z"/>
<path style="fill:#367a7c; stroke:none;" d="M314.333 445.667L314.667 446.333L314.333 445.667M103 446L103 449L104 449L103 446z"/>
<path style="fill:#629798; stroke:none;" d="M152 446L152 449L153 449L152 446z"/>
<path style="fill:#a1c1c2; stroke:none;" d="M178 446L178 454L179 454L178 446z"/>
<path style="fill:#629798; stroke:none;" d="M103 449L103 452L104 452L103 449z"/>
<path style="fill:#367a7c; stroke:none;" d="M152 449L152 452L153 452L152 449M361.333 449.667L361.667 450.333L361.333 449.667z"/>
<path style="fill:#a1c1c2; stroke:none;" d="M313 451L313 455L314 455L313 451z"/>
<path style="fill:#629798; stroke:none;" d="M361 451L361 454L362 454L361 451z"/>
<path style="fill:#a1c1c2; stroke:none;" d="M103 452L103 456L104 456L103 452z"/>
<path style="fill:#367a7c; stroke:none;" d="M287 454L287 458L288 458L287 454z"/>
<path style="fill:#a1c1c2; stroke:none;" d="M361 454L361 458L362 458L361 454M153 455L153 459L154 459L153 455z"/>
<path style="fill:#629798; stroke:none;" d="M313.333 455.667L313.667 456.333L313.333 455.667M246 457L246 467L247 467L246 457z"/>
<path style="fill:#367a7c; stroke:none;" d="M313 457L313 460L314 460L313 457z"/>
<path style="fill:#629798; stroke:none;" d="M287 458L287 463L288 463L287 458M153 459L153 462L154 462L153 459z"/>
<path style="fill:#367a7c; stroke:none;" d="M104.333 460.667L104.667 461.333L104.333 460.667z"/>
<path style="fill:#629798; stroke:none;" d="M104 462L104 465L105 465L104 462z"/>
<path style="fill:#367a7c; stroke:none;" d="M153 462L153 465L154 465L153 462M179 462L179 467L180 467L179 462M360.333 462.667L360.667 463.333L360.333 462.667z"/>
<path style="fill:#a1c1c2; stroke:none;" d="M287 463L287 470L288 470L287 463M312 463L312 467L313 467L312 463z"/>
<path style="fill:#629798; stroke:none;" d="M360 464L360 467L361 467L360 464z"/>
<path style="fill:#a1c1c2; stroke:none;" d="M104 465L104 470L105 470L104 465z"/>
<path style="fill:#629798; stroke:none;" d="M220 466L220 472L221 472L220 466M179 467L179 472L180 472L179 467z"/>
<path style="fill:#367a7c; stroke:none;" d="M246 467L246 472L247 472L246 467z"/>
<path style="fill:#629798; stroke:none;" d="M312 467L312 470L313 470L312 467z"/>
<path style="fill:#a1c1c2; stroke:none;" d="M360 467L360 470L361 470L360 467M154 468L154 472L155 472L154 468z"/>
<path style="fill:#367a7c; stroke:none;" d="M312 470L313 471L312 470z"/>
<path style="fill:#a1c1c2; stroke:none;" d="M287 471L288 472L287 471z"/>
<path style="fill:#629798; stroke:none;" d="M312.333 471.667L312.667 472.333L312.333 471.667z"/>
<path style="fill:#a1c1c2; stroke:none;" d="M179.333 472.667L179.667 473.333L179.333 472.667z"/>
<path style="fill:#367a7c; stroke:none;" d="M287 472L288 473L287 472M105 473L105 476L106 476L105 473z"/>
<path style="fill:#a1c1c2; stroke:none;" d="M155 473L156 474L155 473M221 473L222 474L221 473z"/>
<path style="fill:#367a7c; stroke:none;" d="M155 474L156 475L155 474M179 474L180 475L179 474z"/>
<path style="fill:#629798; stroke:none;" d="M221 474L222 475L221 474z"/>
<path style="fill:#a1c1c2; stroke:none;" d="M288 474L289 475L288 474M311 474L312 475L311 474z"/>
<path style="fill:#367a7c; stroke:none;" d="M359 474L359 477L360 477L359 474z"/>
<path style="fill:#a1c1c2; stroke:none;" d="M156 475L157 476L156 475M178 475L179 476L178 475M245 475L246 476L245 475z"/>
<path style="fill:#367a7c; stroke:none;" d="M288 475L289 476L288 475M311 475L312 476L311 475z"/>
<path style="fill:#629798; stroke:none;" d="M105 476L105 479L106 479L105 476z"/>
<path style="fill:#367a7c; stroke:none;" d="M178 476L179 477L178 476z"/>
<path style="fill:#a1c1c2; stroke:none;" d="M222 476L223 477L222 476z"/>
<path style="fill:#629798; stroke:none;" d="M245 476L246 477L245 476z"/>
<path style="fill:#a1c1c2; stroke:none;" d="M289 476L290 477L289 476z"/>
<path style="fill:#629798; stroke:none;" d="M310 476L311 477L310 476z"/>
<path style="fill:#367a7c; stroke:none;" d="M157 477L158 478L157 477z"/>
<path style="fill:#629798; stroke:none;" d="M177 477L178 478L177 477z"/>
<path style="fill:#367a7c; stroke:none;" d="M222 477L223 478L222 477z"/>
<path style="fill:#a1c1c2; stroke:none;" d="M244 477L245 478L244 477M290 477L291 478L290 477M309 477L310 478L309 477z"/>
<path style="fill:#629798; stroke:none;" d="M359.333 477.667L359.667 478.333L359.333 477.667M158 478L159 479L158 478z"/>
<path style="fill:#a1c1c2; stroke:none;" d="M176 478L177 479L176 478M223 478L224 479L223 478z"/>
<path style="fill:#367a7c; stroke:none;" d="M244 478L245 479L244 478z"/>
<path style="fill:#a1c1c2; stroke:none;" d="M291 478L292 479L291 478M308 478L309 479L308 478M105 479L105 483L106 483L105 479z"/>
<path style="fill:#629798; stroke:none;" d="M159 479L160 480L159 479z"/>
<path style="fill:#a1c1c2; stroke:none;" d="M175 479L176 480L175 479M224 479L225 480L224 479z"/>
<path style="fill:#629798; stroke:none;" d="M243 479L244 480L243 479z"/>
<path style="fill:#a1c1c2; stroke:none;" d="M292 479L293 480L292 479M307 479L308 480L307 479M359 479L359 483L360 483L359 479z"/>
<path style="fill:#367a7c; stroke:none;" d="M160 480L161 481L160 480z"/>
<path style="fill:#a1c1c2; stroke:none;" d="M161 480L162 481L161 480M173 480L174 481L173 480z"/>
<path style="fill:#367a7c; stroke:none;" d="M174 480L175 481L174 480z"/>
<path style="fill:#a1c1c2; stroke:none;" d="M225 480L226 481L225 480z"/>
<path style="fill:#629798; stroke:none;" d="M242 480L243 481L242 480M293 480L294 481L293 480M306 480L307 481L306 480M163 481L164 482L163 481z"/>
<path style="fill:#a1c1c2; stroke:none;" d="M164 481L165 482L164 481M170.667 481.333L171.333 481.667L170.667 481.333z"/>
<path style="fill:#367a7c; stroke:none;" d="M172 481L173 482L172 481z"/>
<path style="fill:#a1c1c2; stroke:none;" d="M226 481L227 482L226 481z"/>
<path style="fill:#367a7c; stroke:none;" d="M241 481L242 482L241 481z"/>
<path style="fill:#629798; stroke:none;" d="M295 481L296 482L295 481z"/>
<path style="fill:#a1c1c2; stroke:none;" d="M296 481L297 482L296 481M303 481L304 482L303 481z"/>
<path style="fill:#629798; stroke:none;" d="M304 481L305 482L304 481z"/>
<path style="fill:#367a7c; stroke:none;" d="M227 482L228 483L227 482z"/>
<path style="fill:#a1c1c2; stroke:none;" d="M228 482L229 483L228 482z"/>
<path style="fill:#629798; stroke:none;" d="M239 482L240 483L239 482z"/>
<path style="fill:#367a7c; stroke:none;" d="M299.667 482.333L300.333 482.667L299.667 482.333z"/>
<path style="fill:#629798; stroke:none;" d="M230 483L231 484L230 483z"/>
<path style="fill:#a1c1c2; stroke:none;" d="M231 483L232 484L231 483M235.667 483.333L236.333 483.667L235.667 483.333z"/>
<path style="fill:#367a7c; stroke:none;" d="M237 483L238 484L237 483z"/>
<path style="fill:#a1c1c2; stroke:none;" d="M106 487L107 488L106 487z"/>
<path style="fill:#367a7c; stroke:none;" d="M358.333 487.667L358.667 488.333L358.333 487.667M107 489L108 490L107 489z"/>
<path style="fill:#629798; stroke:none;" d="M358 489L359 490L358 489z"/>
<path style="fill:#a1c1c2; stroke:none;" d="M107 490L108 491L107 490M358 490L359 491L358 490z"/>
<path style="fill:#367a7c; stroke:none;" d="M357 491L358 492L357 491z"/>
<path style="fill:#629798; stroke:none;" d="M108 492L109 493L108 492z"/>
<path style="fill:#a1c1c2; stroke:none;" d="M357 492L358 493L357 492z"/>
<path style="fill:#629798; stroke:none;" d="M356 493L357 494L356 493z"/>
<path style="fill:#a1c1c2; stroke:none;" d="M109 494L110 495L109 494z"/>
<path style="fill:#367a7c; stroke:none;" d="M355 494L356 495L355 494z"/>
<path style="fill:#a1c1c2; stroke:none;" d="M110 495L111 496L110 495M111 496L112 497L111 496M354 496L355 497L354 496z"/>
<path style="fill:#367a7c; stroke:none;" d="M113 497L114 498L113 497z"/>
<path style="fill:#629798; stroke:none;" d="M352 497L353 498L352 497z"/>
<path style="fill:#a1c1c2; stroke:none;" d="M114 498L115 499L114 498z"/>
<path style="fill:#367a7c; stroke:none;" d="M115 498L116 499L115 498M350 498L351 499L350 498z"/>
<path style="fill:#a1c1c2; stroke:none;" d="M351 498L352 499L351 498M117 499L117 500L166 500C153.348 494.691 130.788 499 117 499z"/>
<path style="fill:#629798; stroke:none;" d="M166 499L166 500L170 500L166 499z"/>
<path style="fill:#367a7c; stroke:none;" d="M170 499L170 500L273 500L242 499L170 499z"/>
<path style="fill:#629798; stroke:none;" d="M273 499L273 500L281 500L273 499z"/>
<path style="fill:#a1c1c2; stroke:none;" d="M281 499L281 500L349 500L328 499L281 499z"/>
</svg>
