<?xml version="1.0" standalone="yes"?>
<svg xmlns="http://www.w3.org/2000/svg" width="500" height="500">
<path style="fill:#05595b; stroke:none;" d="M0 0L0 500L116 500L116 499C105.613 493.563 105.805 483.238 104.83 473C102.819 451.885 100.352 430.209 99.9969 409C99.4128 374.061 94.4793 338.864 92.0895 304C89.0997 260.381 86.972 216.522 82.8302 173C81.0298 154.08 80.9392 134.855 78.7145 116C77.7477 107.806 75.2618 95.7045 81.2245 89.0548C90.2564 78.9822 116.497 84 129 84L262 84L262 83C247.534 81.052 233.2 76.0134 219 72.6543C188.974 65.5513 158.931 58.3929 129 50.8734C118.701 48.2862 90.8661 45.9342 88.3611 33C86.161 21.6403 101.637 1.33188 113 2.09106C138.239 3.77731 165.449 14.2657 190 20.3734C197.906 22.3401 207.785 26.4568 215.896 26.527C220.418 26.5661 223.254 19.9034 226.09 17.0934C231.532 11.7007 238.324 8.6543 246 10.0185C261.692 12.8074 288.174 16.0624 300.907 25.939C308.22 31.6123 307.227 47.6021 314.133 50.5208C335.599 59.5921 362.301 62.9745 385 68.3457C394.342 70.5562 408.268 71.436 415.985 77.419C424.442 83.9765 427.507 110.881 416.981 116.86C408.872 121.466 396.301 116.149 388 114C381.429 141.601 382.861 173.68 380.91 202C376.21 270.262 374.33 340.172 365.424 408C362.559 429.822 362.264 452.087 360.17 474C359.24 483.73 360.15 495.177 349 499L349 500L500 500L500 0L0 0z"/>
<path style="fill:#33787a; stroke:none;" d="M105 2L106 3L105 2z"/>
<path style="fill:#619698; stroke:none;" d="M106 2L107 3L106 2z"/>
<path style="fill:#a3c2c3; stroke:none;" d="M107 2L108 3L107 2z"/>
<path style="fill:#ffffff; stroke:none;" d="M265 83L265 84L131 84C120.294 84 109.649 84.9829 99 85C93.2071 85.0093 86.7253 83.9782 82.1088 88.2284C75.3383 94.4618 78.8638 104.039 78.9969 112C79.3699 134.308 82.385 156.744 83.9105 179C89.213 256.359 95.5833 333.645 100.91 411C102.212 429.896 104.68 449.074 104.997 468C105.137 476.403 104.489 489.467 111.214 495.606C115.606 499.615 121.493 499 127 499L162 499L302 499L340 499C346.493 499 352.926 499.185 356.772 492.957C361.294 485.633 359.299 473.358 360.285 465C363.301 439.452 363.732 413.604 366.17 388C370.857 338.774 373.708 289.327 377.09 240C379.967 198.024 385.195 156.032 387 114C396.007 114.717 408.276 121.244 416.945 116.682C426.129 111.849 424.109 83.8424 416.787 77.993C409.213 71.9425 395.207 71.4066 386 69.1049C362.753 63.2931 338.979 58.4364 316.005 51.6072C306.465 48.7716 309.752 34.137 302.671 27.5293C296.128 21.423 285.354 20.2149 277 18.1266C256.64 13.0365 229.189 1.12576 219 28C195.58 21.4032 171.62 16.4547 148 10.6258C136.557 7.80173 122.819 2.03848 111 2.18442C100.879 2.30939 84.5774 25.3891 89.1937 34.9962C94.7383 46.5355 120.794 48.3251 132 51.1266C163.911 59.1042 195.887 67.2922 228 74.4244C240.176 77.1287 252.554 81.9835 265 83z"/>
<path style="fill:#a3c2c3; stroke:none;" d="M114 2L115 3L114 2z"/>
<path style="fill:#619698; stroke:none;" d="M115 2L116 3L115 2z"/>
<path style="fill:#33787a; stroke:none;" d="M116 2L117 3L116 2z"/>
<path style="fill:#619698; stroke:none;" d="M104 3L105 4L104 3z"/>
<path style="fill:#a3c2c3; stroke:none;" d="M118 3L119 4L118 3z"/>
<path style="fill:#619698; stroke:none;" d="M119 3L120 4L119 3z"/>
<path style="fill:#33787a; stroke:none;" d="M120 3L121 4L120 3M102 4L103 5L102 4z"/>
<path style="fill:#a3c2c3; stroke:none;" d="M103 4L104 5L103 4M122 4L123 5L122 4z"/>
<path style="fill:#619698; stroke:none;" d="M123.667 4.33334L124.333 4.66666L123.667 4.33334z"/>
<path style="fill:#33787a; stroke:none;" d="M125 4L126 5L125 4z"/>
<path style="fill:#619698; stroke:none;" d="M101 5L102 6L101 5z"/>
<path style="fill:#a3c2c3; stroke:none;" d="M127 5L128 6L127 5z"/>
<path style="fill:#619698; stroke:none;" d="M128 5L129 6L128 5z"/>
<path style="fill:#33787a; stroke:none;" d="M129 5L130 6L129 5z"/>
<path style="fill:#619698; stroke:none;" d="M100 6L101 7L100 6z"/>
<path style="fill:#a3c2c3; stroke:none;" d="M131 6L132 7L131 6z"/>
<path style="fill:#619698; stroke:none;" d="M132 6L133 7L132 6z"/>
<path style="fill:#33787a; stroke:none;" d="M133 6L134 7L133 6M99 7L100 8L99 7z"/>
<path style="fill:#a3c2c3; stroke:none;" d="M135 7L136 8L135 7z"/>
<path style="fill:#619698; stroke:none;" d="M136 7L137 8L136 7z"/>
<path style="fill:#33787a; stroke:none;" d="M137 7L138 8L137 7z"/>
<path style="fill:#a3c2c3; stroke:none;" d="M99 8L100 9L99 8M139 8L140 9L139 8z"/>
<path style="fill:#619698; stroke:none;" d="M140 8L141 9L140 8z"/>
<path style="fill:#33787a; stroke:none;" d="M141 8L142 9L141 8z"/>
<path style="fill:#619698; stroke:none;" d="M98 9L99 10L98 9z"/>
<path style="fill:#a3c2c3; stroke:none;" d="M143 9L144 10L143 9z"/>
<path style="fill:#619698; stroke:none;" d="M144 9L145 10L144 9z"/>
<path style="fill:#33787a; stroke:none;" d="M145 9L146 10L145 9M240 9L240 10L244 10L240 9z"/>
<path style="fill:#a3c2c3; stroke:none;" d="M147.667 10.3333L148.333 10.6667L147.667 10.3333z"/>
<path style="fill:#33787a; stroke:none;" d="M149 10L150 11L149 10M235 10L236 11L235 10z"/>
<path style="fill:#619698; stroke:none;" d="M236 10L237 11L236 10z"/>
<path style="fill:#a3c2c3; stroke:none;" d="M237 10L238 11L237 10M245.667 10.3333L246.333 10.6667L245.667 10.3333z"/>
<path style="fill:#619698; stroke:none;" d="M247 10L248 11L247 10z"/>
<path style="fill:#33787a; stroke:none;" d="M248 10L249 11L248 10z"/>
<path style="fill:#a3c2c3; stroke:none;" d="M97 11L98 12L97 11M151.667 11.3333L152.333 11.6667L151.667 11.3333z"/>
<path style="fill:#619698; stroke:none;" d="M153 11L154 12L153 11z"/>
<path style="fill:#33787a; stroke:none;" d="M233 11L234 12L233 11z"/>
<path style="fill:#a3c2c3; stroke:none;" d="M234 11L235 12L234 11M250 11L251 12L250 11z"/>
<path style="fill:#619698; stroke:none;" d="M251 11L252 12L251 11z"/>
<path style="fill:#33787a; stroke:none;" d="M252 11L253 12L252 11z"/>
<path style="fill:#a3c2c3; stroke:none;" d="M156 12L157 13L156 12z"/>
<path style="fill:#619698; stroke:none;" d="M157 12L158 13L157 12z"/>
<path style="fill:#33787a; stroke:none;" d="M231 12L232 13L231 12z"/>
<path style="fill:#a3c2c3; stroke:none;" d="M232 12L233 13L232 12M254 12L255 13L254 12z"/>
<path style="fill:#619698; stroke:none;" d="M255 12L256 13L255 12z"/>
<path style="fill:#33787a; stroke:none;" d="M256 12L257 13L256 12z"/>
<path style="fill:#a3c2c3; stroke:none;" d="M96 13L97 14L96 13M159 13L160 14L159 13z"/>
<path style="fill:#619698; stroke:none;" d="M160 13L161 14L160 13z"/>
<path style="fill:#33787a; stroke:none;" d="M161 13L162 14L161 13z"/>
<path style="fill:#a3c2c3; stroke:none;" d="M230 13L231 14L230 13M258 13L259 14L258 13z"/>
<path style="fill:#619698; stroke:none;" d="M259 13L260 14L259 13z"/>
<path style="fill:#33787a; stroke:none;" d="M260 13L261 14L260 13M95 14L96 15L95 14z"/>
<path style="fill:#a3c2c3; stroke:none;" d="M163 14L164 15L163 14z"/>
<path style="fill:#619698; stroke:none;" d="M164 14L165 15L164 14z"/>
<path style="fill:#33787a; stroke:none;" d="M165 14L166 15L165 14M228 14L229 15L228 14z"/>
<path style="fill:#a3c2c3; stroke:none;" d="M262.667 14.3333L263.333 14.6667L262.667 14.3333z"/>
<path style="fill:#619698; stroke:none;" d="M264 14L265 15L264 14z"/>
<path style="fill:#a3c2c3; stroke:none;" d="M95 15L96 16L95 15M167 15L168 16L167 15z"/>
<path style="fill:#619698; stroke:none;" d="M168 15L169 16L168 15z"/>
<path style="fill:#33787a; stroke:none;" d="M169 15L170 16L169 15z"/>
<path style="fill:#619698; stroke:none;" d="M227 15L228 16L227 15z"/>
<path style="fill:#a3c2c3; stroke:none;" d="M266.667 15.3333L267.333 15.6667L266.667 15.3333z"/>
<path style="fill:#33787a; stroke:none;" d="M268 15L269 16L268 15M94 16L95 17L94 16z"/>
<path style="fill:#a3c2c3; stroke:none;" d="M171.667 16.3333L172.333 16.6667L171.667 16.3333z"/>
<path style="fill:#619698; stroke:none;" d="M173 16L174 17L173 16z"/>
<path style="fill:#33787a; stroke:none;" d="M174 16L175 17L174 16z"/>
<path style="fill:#619698; stroke:none;" d="M226 16L227 17L226 16z"/>
<path style="fill:#a3c2c3; stroke:none;" d="M270.667 16.3333L271.333 16.6667L270.667 16.3333z"/>
<path style="fill:#619698; stroke:none;" d="M272 16L273 17L272 16z"/>
<path style="fill:#a3c2c3; stroke:none;" d="M94 17L95 18L94 17M176 17L177 18L176 17z"/>
<path style="fill:#619698; stroke:none;" d="M177 17L178 18L177 17z"/>
<path style="fill:#33787a; stroke:none;" d="M178 17L179 18L178 17z"/>
<path style="fill:#619698; stroke:none;" d="M225 17L226 18L225 17z"/>
<path style="fill:#a3c2c3; stroke:none;" d="M274 17L275 18L274 17z"/>
<path style="fill:#619698; stroke:none;" d="M275 17L276 18L275 17z"/>
<path style="fill:#33787a; stroke:none;" d="M276 17L277 18L276 17M93 18L94 19L93 18z"/>
<path style="fill:#a3c2c3; stroke:none;" d="M180 18L181 19L180 18z"/>
<path style="fill:#619698; stroke:none;" d="M181 18L182 19L181 18z"/>
<path style="fill:#33787a; stroke:none;" d="M182 18L183 19L182 18z"/>
<path style="fill:#619698; stroke:none;" d="M224 18L225 19L224 18z"/>
<path style="fill:#a3c2c3; stroke:none;" d="M278 18L279 19L278 18z"/>
<path style="fill:#619698; stroke:none;" d="M279 18L280 19L279 18z"/>
<path style="fill:#33787a; stroke:none;" d="M280 18L281 19L280 18z"/>
<path style="fill:#a3c2c3; stroke:none;" d="M93 19L94 20L93 19M184 19L185 20L184 19z"/>
<path style="fill:#619698; stroke:none;" d="M185 19L186 20L185 19z"/>
<path style="fill:#33787a; stroke:none;" d="M186 19L187 20L186 19M223 19L224 20L223 19z"/>
<path style="fill:#a3c2c3; stroke:none;" d="M282 19L283 20L282 19z"/>
<path style="fill:#619698; stroke:none;" d="M283 19L284 20L283 19z"/>
<path style="fill:#33787a; stroke:none;" d="M284 19L285 20L284 19M92 20L93 21L92 20z"/>
<path style="fill:#a3c2c3; stroke:none;" d="M188.667 20.3333L189.333 20.6667L188.667 20.3333z"/>
<path style="fill:#33787a; stroke:none;" d="M190 20L191 21L190 20z"/>
<path style="fill:#a3c2c3; stroke:none;" d="M286 20L287 21L286 20z"/>
<path style="fill:#619698; stroke:none;" d="M287 20L288 21L287 20z"/>
<path style="fill:#33787a; stroke:none;" d="M288 20L289 21L288 20z"/>
<path style="fill:#a3c2c3; stroke:none;" d="M92 21L93 22L92 21M192.667 21.3333L193.333 21.6667L192.667 21.3333z"/>
<path style="fill:#33787a; stroke:none;" d="M194 21L195 22L194 21z"/>
<path style="fill:#a3c2c3; stroke:none;" d="M222 21L223 22L222 21M290 21L291 22L290 21z"/>
<path style="fill:#619698; stroke:none;" d="M291 21L292 22L291 21M91 22L92 23L91 22z"/>
<path style="fill:#a3c2c3; stroke:none;" d="M196 22L197 23L196 22z"/>
<path style="fill:#619698; stroke:none;" d="M197.667 22.3333L198.333 22.6667L197.667 22.3333z"/>
<path style="fill:#33787a; stroke:none;" d="M199 22L200 23L199 22z"/>
<path style="fill:#619698; stroke:none;" d="M221 22L222 23L221 22z"/>
<path style="fill:#a3c2c3; stroke:none;" d="M293 22L294 23L293 22z"/>
<path style="fill:#619698; stroke:none;" d="M294 22L295 23L294 22z"/>
<path style="fill:#a3c2c3; stroke:none;" d="M201 23L202 24L201 23z"/>
<path style="fill:#619698; stroke:none;" d="M202 23L203 24L202 23z"/>
<path style="fill:#33787a; stroke:none;" d="M220 23L221 24L220 23z"/>
<path style="fill:#a3c2c3; stroke:none;" d="M296 23L297 24L296 23z"/>
<path style="fill:#33787a; stroke:none;" d="M297 23L298 24L297 23z"/>
<path style="fill:#619698; stroke:none;" d="M90 24L91 25L90 24z"/>
<path style="fill:#a3c2c3; stroke:none;" d="M205 24L206 25L205 24z"/>
<path style="fill:#619698; stroke:none;" d="M206 24L207 25L206 24z"/>
<path style="fill:#33787a; stroke:none;" d="M207 24L208 25L207 24z"/>
<path style="fill:#a3c2c3; stroke:none;" d="M220 24L221 25L220 24M298 24L299 25L298 24z"/>
<path style="fill:#33787a; stroke:none;" d="M299 24L300 25L299 24z"/>
<path style="fill:#a3c2c3; stroke:none;" d="M209 25L210 26L209 25z"/>
<path style="fill:#619698; stroke:none;" d="M210 25L211 26L210 25z"/>
<path style="fill:#33787a; stroke:none;" d="M211 25L212 26L211 25z"/>
<path style="fill:#619698; stroke:none;" d="M219 25L220 26L219 25z"/>
<path style="fill:#a3c2c3; stroke:none;" d="M300 25L301 26L300 25z"/>
<path style="fill:#619698; stroke:none;" d="M89 26L90 27L89 26z"/>
<path style="fill:#a3c2c3; stroke:none;" d="M213 26L214 27L213 26z"/>
<path style="fill:#619698; stroke:none;" d="M214 26L215 27L214 26z"/>
<path style="fill:#a3c2c3; stroke:none;" d="M301 26L302 27L301 26M217.667 27.3333L218.333 27.6667L217.667 27.3333z"/>
<path style="fill:#33787a; stroke:none;" d="M303 27L304 28L303 27z"/>
<path style="fill:#619698; stroke:none;" d="M88 28L89 29L88 28z"/>
<path style="fill:#a3c2c3; stroke:none;" d="M88 29L89 30L88 29M304 29L305 30L304 29z"/>
<path style="fill:#33787a; stroke:none;" d="M305 30L306 31L305 30z"/>
<path style="fill:#619698; stroke:none;" d="M306 32L307 33L306 32z"/>
<path style="fill:#a3c2c3; stroke:none;" d="M88 34L89 35L88 34z"/>
<path style="fill:#619698; stroke:none;" d="M307 34L308 35L307 34z"/>
<path style="fill:#33787a; stroke:none;" d="M88 35L89 36L88 35z"/>
<path style="fill:#619698; stroke:none;" d="M89 36L90 37L89 36z"/>
<path style="fill:#33787a; stroke:none;" d="M308 36L309 37L308 36z"/>
<path style="fill:#a3c2c3; stroke:none;" d="M90 37L91 38L90 37M308 37L309 38L308 37M91 38L92 39L91 38M92 39L93 40L92 39z"/>
<path style="fill:#33787a; stroke:none;" d="M309 39L310 40L309 39z"/>
<path style="fill:#619698; stroke:none;" d="M93 40L94 41L93 40M309 40L310 41L309 40z"/>
<path style="fill:#a3c2c3; stroke:none;" d="M95 41L96 42L95 41M309 41L309 44L310 44L309 41z"/>
<path style="fill:#619698; stroke:none;" d="M97 42L98 43L97 42z"/>
<path style="fill:#a3c2c3; stroke:none;" d="M98 42L99 43L98 42z"/>
<path style="fill:#33787a; stroke:none;" d="M100 43L101 44L100 43z"/>
<path style="fill:#a3c2c3; stroke:none;" d="M101 43L102 44L101 43z"/>
<path style="fill:#33787a; stroke:none;" d="M103 44L104 45L103 44z"/>
<path style="fill:#619698; stroke:none;" d="M104 44L105 45L104 44z"/>
<path style="fill:#a3c2c3; stroke:none;" d="M105.667 44.3333L106.333 44.6667L105.667 44.3333z"/>
<path style="fill:#619698; stroke:none;" d="M108 45L109 46L108 45z"/>
<path style="fill:#a3c2c3; stroke:none;" d="M109 45L110 46L109 45z"/>
<path style="fill:#33787a; stroke:none;" d="M111 46L112 47L111 46z"/>
<path style="fill:#619698; stroke:none;" d="M112 46L113 47L112 46z"/>
<path style="fill:#a3c2c3; stroke:none;" d="M113 46L114 47L113 46z"/>
<path style="fill:#619698; stroke:none;" d="M116 47L117 48L116 47z"/>
<path style="fill:#a3c2c3; stroke:none;" d="M117.667 47.3333L118.333 47.6667L117.667 47.3333z"/>
<path style="fill:#33787a; stroke:none;" d="M310 47L310 50L311 50L310 47z"/>
<path style="fill:#619698; stroke:none;" d="M120 48L121 49L120 48z"/>
<path style="fill:#a3c2c3; stroke:none;" d="M121 48L122 49L121 48z"/>
<path style="fill:#33787a; stroke:none;" d="M123 49L124 50L123 49z"/>
<path style="fill:#619698; stroke:none;" d="M124 49L125 50L124 49z"/>
<path style="fill:#a3c2c3; stroke:none;" d="M125 49L126 50L125 49z"/>
<path style="fill:#33787a; stroke:none;" d="M127 50L128 51L127 50z"/>
<path style="fill:#619698; stroke:none;" d="M128 50L129 51L128 50z"/>
<path style="fill:#a3c2c3; stroke:none;" d="M129 50L130 51L129 50M311 50L312 51L311 50z"/>
<path style="fill:#619698; stroke:none;" d="M312 50L313 51L312 50z"/>
<path style="fill:#33787a; stroke:none;" d="M313 50L314 51L313 50M131 51L132 52L131 51z"/>
<path style="fill:#619698; stroke:none;" d="M132 51L133 52L132 51z"/>
<path style="fill:#a3c2c3; stroke:none;" d="M133 51L134 52L133 51M315 51L316 52L315 51z"/>
<path style="fill:#619698; stroke:none;" d="M316 51L317 52L316 51z"/>
<path style="fill:#33787a; stroke:none;" d="M317 51L318 52L317 51M135 52L136 53L135 52z"/>
<path style="fill:#619698; stroke:none;" d="M136 52L137 53L136 52z"/>
<path style="fill:#a3c2c3; stroke:none;" d="M137 52L138 53L137 52M319 52L320 53L319 52z"/>
<path style="fill:#619698; stroke:none;" d="M320 52L321 53L320 52z"/>
<path style="fill:#33787a; stroke:none;" d="M139 53L140 54L139 53z"/>
<path style="fill:#619698; stroke:none;" d="M140 53L141 54L140 53z"/>
<path style="fill:#a3c2c3; stroke:none;" d="M141 53L142 54L141 53M323 53L324 54L323 53z"/>
<path style="fill:#619698; stroke:none;" d="M324 53L325 54L324 53z"/>
<path style="fill:#33787a; stroke:none;" d="M325 53L326 54L325 53M143 54L144 55L143 54z"/>
<path style="fill:#619698; stroke:none;" d="M144 54L145 55L144 54z"/>
<path style="fill:#a3c2c3; stroke:none;" d="M145 54L146 55L145 54M327 54L328 55L327 54z"/>
<path style="fill:#619698; stroke:none;" d="M328 54L329 55L328 54z"/>
<path style="fill:#33787a; stroke:none;" d="M329 54L330 55L329 54M147 55L148 56L147 55z"/>
<path style="fill:#619698; stroke:none;" d="M148 55L149 56L148 55z"/>
<path style="fill:#a3c2c3; stroke:none;" d="M149.667 55.3333L150.333 55.6667L149.667 55.3333M331 55L332 56L331 55z"/>
<path style="fill:#619698; stroke:none;" d="M332 55L333 56L332 55z"/>
<path style="fill:#33787a; stroke:none;" d="M333 55L334 56L333 55M152 56L153 57L152 56z"/>
<path style="fill:#619698; stroke:none;" d="M153 56L154 57L153 56z"/>
<path style="fill:#a3c2c3; stroke:none;" d="M154 56L155 57L154 56M335 56L336 57L335 56z"/>
<path style="fill:#619698; stroke:none;" d="M336 56L337 57L336 56z"/>
<path style="fill:#33787a; stroke:none;" d="M337 56L338 57L337 56z"/>
<path style="fill:#619698; stroke:none;" d="M156 57L157 58L156 57z"/>
<path style="fill:#a3c2c3; stroke:none;" d="M157 57L158 58L157 57M339 57L340 58L339 57z"/>
<path style="fill:#619698; stroke:none;" d="M340 57L341 58L340 57z"/>
<path style="fill:#33787a; stroke:none;" d="M341 57L342 58L341 57z"/>
<path style="fill:#619698; stroke:none;" d="M160 58L161 59L160 58z"/>
<path style="fill:#a3c2c3; stroke:none;" d="M161.667 58.3333L162.333 58.6667L161.667 58.3333M343 58L344 59L343 58z"/>
<path style="fill:#619698; stroke:none;" d="M344 58L345 59L344 58z"/>
<path style="fill:#33787a; stroke:none;" d="M345 58L346 59L345 58M164 59L165 60L164 59z"/>
<path style="fill:#a3c2c3; stroke:none;" d="M165.667 59.3333L166.333 59.6667L165.667 59.3333M347.667 59.3333L348.333 59.6667L347.667 59.3333z"/>
<path style="fill:#619698; stroke:none;" d="M349 59L350 60L349 59M168.667 60.3333L169.333 60.6667L168.667 60.3333z"/>
<path style="fill:#a3c2c3; stroke:none;" d="M170 60L171 61L170 60M352 60L353 61L352 60z"/>
<path style="fill:#619698; stroke:none;" d="M353 60L354 61L353 60z"/>
<path style="fill:#33787a; stroke:none;" d="M172 61L173 62L172 61z"/>
<path style="fill:#619698; stroke:none;" d="M173 61L174 62L173 61z"/>
<path style="fill:#a3c2c3; stroke:none;" d="M174 61L175 62L174 61M355.667 61.3333L356.333 61.6667L355.667 61.3333z"/>
<path style="fill:#33787a; stroke:none;" d="M357 61L358 62L357 61z"/>
<path style="fill:#619698; stroke:none;" d="M176 62L177 63L176 62z"/>
<path style="fill:#a3c2c3; stroke:none;" d="M177.667 62.3333L178.333 62.6667L177.667 62.3333M359.667 62.3333L360.333 62.6667L359.667 62.3333z"/>
<path style="fill:#619698; stroke:none;" d="M361 62L362 63L361 62z"/>
<path style="fill:#33787a; stroke:none;" d="M180 63L181 64L180 63z"/>
<path style="fill:#619698; stroke:none;" d="M181 63L182 64L181 63z"/>
<path style="fill:#a3c2c3; stroke:none;" d="M182 63L183 64L182 63M363.667 63.3333L364.333 63.6667L363.667 63.3333z"/>
<path style="fill:#33787a; stroke:none;" d="M365 63L366 64L365 63z"/>
<path style="fill:#619698; stroke:none;" d="M185 64L186 65L185 64z"/>
<path style="fill:#a3c2c3; stroke:none;" d="M186.667 64.3333L187.333 64.6667L186.667 64.3333M367.667 64.3333L368.333 64.6667L367.667 64.3333z"/>
<path style="fill:#619698; stroke:none;" d="M369 64L370 65L369 64z"/>
<path style="fill:#33787a; stroke:none;" d="M189 65L190 66L189 65z"/>
<path style="fill:#619698; stroke:none;" d="M190 65L191 66L190 65z"/>
<path style="fill:#a3c2c3; stroke:none;" d="M191 65L192 66L191 65M372 65L373 66L372 65z"/>
<path style="fill:#619698; stroke:none;" d="M373 65L374 66L373 65z"/>
<path style="fill:#33787a; stroke:none;" d="M374 65L375 66L374 65M193 66L194 67L193 66z"/>
<path style="fill:#619698; stroke:none;" d="M194 66L195 67L194 66z"/>
<path style="fill:#a3c2c3; stroke:none;" d="M195 66L196 67L195 66M376 66L377 67L376 66z"/>
<path style="fill:#619698; stroke:none;" d="M377 66L378 67L377 66z"/>
<path style="fill:#33787a; stroke:none;" d="M378 66L379 67L378 66M197 67L198 68L197 67z"/>
<path style="fill:#619698; stroke:none;" d="M198 67L199 68L198 67z"/>
<path style="fill:#a3c2c3; stroke:none;" d="M199 67L200 68L199 67M380 67L381 68L380 67z"/>
<path style="fill:#619698; stroke:none;" d="M381 67L382 68L381 67M202 68L203 69L202 68z"/>
<path style="fill:#a3c2c3; stroke:none;" d="M203 68L204 69L203 68M383.667 68.3333L384.333 68.6667L383.667 68.3333z"/>
<path style="fill:#619698; stroke:none;" d="M385 68L386 69L385 68z"/>
<path style="fill:#33787a; stroke:none;" d="M205 69L206 70L205 69z"/>
<path style="fill:#619698; stroke:none;" d="M206 69L207 70L206 69z"/>
<path style="fill:#a3c2c3; stroke:none;" d="M207 69L208 70L207 69M387.667 69.3333L388.333 69.6667L387.667 69.3333z"/>
<path style="fill:#619698; stroke:none;" d="M389 69L390 70L389 69z"/>
<path style="fill:#33787a; stroke:none;" d="M390 69L391 70L390 69M209 70L210 71L209 70z"/>
<path style="fill:#619698; stroke:none;" d="M210 70L211 71L210 70z"/>
<path style="fill:#a3c2c3; stroke:none;" d="M211 70L212 71L211 70M392 70L393 71L392 70z"/>
<path style="fill:#619698; stroke:none;" d="M393 70L394 71L393 70z"/>
<path style="fill:#33787a; stroke:none;" d="M394 70L395 71L394 70M213 71L214 72L213 71z"/>
<path style="fill:#619698; stroke:none;" d="M214 71L215 72L214 71z"/>
<path style="fill:#a3c2c3; stroke:none;" d="M215 71L216 72L215 71M396 71L397 72L396 71z"/>
<path style="fill:#619698; stroke:none;" d="M397 71L398 72L397 71z"/>
<path style="fill:#33787a; stroke:none;" d="M398 71L399 72L398 71z"/>
<path style="fill:#619698; stroke:none;" d="M218 72L219 73L218 72z"/>
<path style="fill:#a3c2c3; stroke:none;" d="M219 72L220 73L219 72M400 72L401 73L400 72z"/>
<path style="fill:#619698; stroke:none;" d="M401 72L402 73L401 72z"/>
<path style="fill:#33787a; stroke:none;" d="M402 72L403 73L402 72z"/>
<path style="fill:#619698; stroke:none;" d="M222 73L223 74L222 73z"/>
<path style="fill:#a3c2c3; stroke:none;" d="M223 73L224 74L223 73M404 73L405 74L404 73z"/>
<path style="fill:#619698; stroke:none;" d="M405 73L406 74L405 73z"/>
<path style="fill:#33787a; stroke:none;" d="M225 74L226 75L225 74z"/>
<path style="fill:#619698; stroke:none;" d="M226 74L227 75L226 74z"/>
<path style="fill:#a3c2c3; stroke:none;" d="M227.667 74.3333L228.333 74.6667L227.667 74.3333M408 74L409 75L408 74z"/>
<path style="fill:#619698; stroke:none;" d="M409 74L410 75L409 74z"/>
<path style="fill:#33787a; stroke:none;" d="M410 74L411 75L410 74M230 75L231 76L230 75z"/>
<path style="fill:#619698; stroke:none;" d="M231 75L232 76L231 75z"/>
<path style="fill:#a3c2c3; stroke:none;" d="M232 75L233 76L232 75M412 75L413 76L412 75z"/>
<path style="fill:#619698; stroke:none;" d="M413 75L414 76L413 75M234 76L235 77L234 76z"/>
<path style="fill:#a3c2c3; stroke:none;" d="M235.667 76.3333L236.333 76.6667L235.667 76.3333z"/>
<path style="fill:#619698; stroke:none;" d="M415 76L416 77L415 76z"/>
<path style="fill:#33787a; stroke:none;" d="M238 77L239 78L238 77z"/>
<path style="fill:#619698; stroke:none;" d="M239 77L240 78L239 77z"/>
<path style="fill:#a3c2c3; stroke:none;" d="M240 77L241 78L240 77M416 77L417 78L416 77z"/>
<path style="fill:#619698; stroke:none;" d="M242 78L243 79L242 78z"/>
<path style="fill:#a3c2c3; stroke:none;" d="M243.667 78.3333L244.333 78.6667L243.667 78.3333M417 78L418 79L417 78z"/>
<path style="fill:#33787a; stroke:none;" d="M246 79L247 80L246 79z"/>
<path style="fill:#619698; stroke:none;" d="M247 79L248 80L247 79z"/>
<path style="fill:#a3c2c3; stroke:none;" d="M248 79L249 80L248 79z"/>
<path style="fill:#33787a; stroke:none;" d="M250 80L251 81L250 80z"/>
<path style="fill:#619698; stroke:none;" d="M251 80L252 81L251 80z"/>
<path style="fill:#a3c2c3; stroke:none;" d="M252 80L253 81L252 80M419 80L420 81L419 80z"/>
<path style="fill:#33787a; stroke:none;" d="M254 81L255 82L254 81z"/>
<path style="fill:#619698; stroke:none;" d="M255 81L256 82L255 81z"/>
<path style="fill:#a3c2c3; stroke:none;" d="M256 81L257 82L256 81z"/>
<path style="fill:#33787a; stroke:none;" d="M420 81L421 82L420 81M258 82L259 83L258 82z"/>
<path style="fill:#619698; stroke:none;" d="M259 82L260 83L259 82z"/>
<path style="fill:#a3c2c3; stroke:none;" d="M260 82L261 83L260 82M420 82L421 83L420 82z"/>
<path style="fill:#33787a; stroke:none;" d="M262 83L263 84L262 83z"/>
<path style="fill:#619698; stroke:none;" d="M263 83L264 84L263 83z"/>
<path style="fill:#a3c2c3; stroke:none;" d="M264 83L265 84L264 83z"/>
<path style="fill:#33787a; stroke:none;" d="M421 83L422 84L421 83z"/>
<path style="fill:#619698; stroke:none;" d="M87 84L88 85L87 84z"/>
<path style="fill:#a3c2c3; stroke:none;" d="M88 84L88 85L108 85L88 84M421 84L422 85L421 84z"/>
<path style="fill:#33787a; stroke:none;" d="M84 85L85 86L84 85z"/>
<path style="fill:#a3c2c3; stroke:none;" d="M85 85L86 86L85 85z"/>
<path style="fill:#619698; stroke:none;" d="M83 86L84 87L83 86z"/>
<path style="fill:#a3c2c3; stroke:none;" d="M82 87L83 88L82 87M81 88L82 89L81 88M80 89L81 90L80 89z"/>
<path style="fill:#619698; stroke:none;" d="M79 90L80 91L79 90z"/>
<path style="fill:#33787a; stroke:none;" d="M422 90L422 104L423 104L422 90z"/>
<path style="fill:#a3c2c3; stroke:none;" d="M78 92L79 93L78 92z"/>
<path style="fill:#33787a; stroke:none;" d="M77 95L77 99L78 99L77 95z"/>
<path style="fill:#a3c2c3; stroke:none;" d="M143 103L144 104L143 103z"/>
<path style="fill:#619698; stroke:none;" d="M144.667 103.333L145.333 103.667L144.667 103.333z"/>
<path style="fill:#33787a; stroke:none;" d="M146.667 103.333L147.333 103.667L146.667 103.333z"/>
<path style="fill:#619698; stroke:none;" d="M148 103L149 104L148 103z"/>
<path style="fill:#a3c2c3; stroke:none;" d="M149 103L150 104L149 103z"/>
<path style="fill:#619698; stroke:none;" d="M141 104L142 105L141 104z"/>
<path style="fill:#05595b; stroke:none;" d="M142 104.703C129.553 108.907 129.492 119.313 129.961 130C130.618 144.987 132.746 160.015 132.997 175C133.67 215.28 139.156 255.81 141.91 296C144.319 331.138 144.991 367.083 149.576 402C152.355 423.171 151.531 444.825 154.289 466C155.421 474.687 160.53 484.363 170.999 481.192C180.424 478.338 179.457 467.979 178.91 460C177.529 439.827 176.098 419.219 176.001 399C175.629 321.974 166.124 244.991 166 168C165.976 153.102 168.166 130.982 162.856 117C159.838 109.053 150.822 101.723 142 104.703z"/>
<path style="fill:#619698; stroke:none;" d="M151 104L152 105L151 104z"/>
<path style="fill:#a3c2c3; stroke:none;" d="M78 105L78 110L79 110L78 105M139 105L140 106L139 105z"/>
<path style="fill:#33787a; stroke:none;" d="M152 105L153 106L152 105z"/>
<path style="fill:#a3c2c3; stroke:none;" d="M153 105L154 106L153 105M229 105L230 106L229 105z"/>
<path style="fill:#619698; stroke:none;" d="M230 105L231 106L230 105z"/>
<path style="fill:#33787a; stroke:none;" d="M231.667 105.333L232.333 105.667L231.667 105.333z"/>
<path style="fill:#05595b; stroke:none;" d="M233 105.529C227.349 106.003 220.255 108.41 217.858 114.04C215.594 119.359 217 127.314 217 133L217 175C217 250.651 220 326.329 220 402C220 423.965 220.042 446.062 221.039 468C221.38 475.495 225.325 483.599 234 483.37C243.947 483.108 245.987 474.043 246 466C246.034 444.617 247 423.39 247 402C247 325.998 250 250.027 250 174C250 156.216 255.309 133.249 250.566 116.001C248.682 109.147 239.681 104.97 233 105.529z"/>
<path style="fill:#33787a; stroke:none;" d="M236 105L237 106L236 105z"/>
<path style="fill:#619698; stroke:none;" d="M237 105L238 106L237 105z"/>
<path style="fill:#a3c2c3; stroke:none;" d="M238 105L239 106L238 105z"/>
<path style="fill:#33787a; stroke:none;" d="M138 106L139 107L138 106z"/>
<path style="fill:#619698; stroke:none;" d="M154 106L155 107L154 106M226 106L227 107L226 106z"/>
<path style="fill:#33787a; stroke:none;" d="M227 106L228 107L227 106z"/>
<path style="fill:#619698; stroke:none;" d="M240 106L241 107L240 106z"/>
<path style="fill:#a3c2c3; stroke:none;" d="M241 106L242 107L241 106M136 107L137 108L136 107z"/>
<path style="fill:#33787a; stroke:none;" d="M155 107L156 108L155 107z"/>
<path style="fill:#a3c2c3; stroke:none;" d="M223 107L224 108L223 107z"/>
<path style="fill:#33787a; stroke:none;" d="M224 107L225 108L224 107M242 107L243 108L242 107z"/>
<path style="fill:#a3c2c3; stroke:none;" d="M243 107L244 108L243 107M135 108L136 109L135 108z"/>
<path style="fill:#619698; stroke:none;" d="M222 108L223 109L222 108z"/>
<path style="fill:#33787a; stroke:none;" d="M244 108L245 109L244 108z"/>
<path style="fill:#a3c2c3; stroke:none;" d="M316 108L317 109L316 108z"/>
<path style="fill:#619698; stroke:none;" d="M317 108L318 109L317 108z"/>
<path style="fill:#33787a; stroke:none;" d="M318.667 108.333L319.333 108.667L318.667 108.333z"/>
<path style="fill:#05595b; stroke:none;" d="M320 108.479C314.049 109.167 307.739 112.31 305.228 118.039C301.949 125.523 303.092 136.937 302.996 145C302.862 156.316 301.055 167.681 301.001 179C300.77 226.792 297.354 275.326 294.09 323C292.209 350.464 294.008 378.706 290.424 406C287.775 426.179 286.772 449.666 288.044 470C288.453 476.534 294.103 482.433 301 481.743C312.04 480.639 311.499 470.199 312.576 462C315.224 441.829 315.242 421.249 317.17 401C324.344 325.657 324.726 249.014 334.576 174C336.135 162.125 336.271 149.944 337.09 138C337.524 131.659 339.333 124.303 337.566 118.015C335.686 111.32 326.365 107.743 320 108.479z"/>
<path style="fill:#33787a; stroke:none;" d="M324 108L325 109L324 108z"/>
<path style="fill:#619698; stroke:none;" d="M325 108L326 109L325 108z"/>
<path style="fill:#a3c2c3; stroke:none;" d="M326 108L327 109L326 108z"/>
<path style="fill:#619698; stroke:none;" d="M134 109L135 110L134 109z"/>
<path style="fill:#a3c2c3; stroke:none;" d="M158 109L159 110L158 109z"/>
<path style="fill:#33787a; stroke:none;" d="M221 109L222 110L221 109z"/>
<path style="fill:#a3c2c3; stroke:none;" d="M246 109L247 110L246 109M313 109L314 110L313 109z"/>
<path style="fill:#33787a; stroke:none;" d="M314 109L315 110L314 109z"/>
<path style="fill:#619698; stroke:none;" d="M328 109L329 110L328 109M78 110L78 113L79 113L78 110M133 110L134 111L133 110z"/>
<path style="fill:#a3c2c3; stroke:none;" d="M219 110L220 111L219 110z"/>
<path style="fill:#619698; stroke:none;" d="M247 110L248 111L247 110z"/>
<path style="fill:#a3c2c3; stroke:none;" d="M311 110L312 111L311 110z"/>
<path style="fill:#33787a; stroke:none;" d="M312 110L313 111L312 110z"/>
<path style="fill:#619698; stroke:none;" d="M330 110L331 111L330 110z"/>
<path style="fill:#a3c2c3; stroke:none;" d="M132 111L133 112L132 111z"/>
<path style="fill:#33787a; stroke:none;" d="M159 111L160 112L159 111z"/>
<path style="fill:#619698; stroke:none;" d="M248 111L249 112L248 111M310 111L311 112L310 111M332 111L333 112L332 111z"/>
<path style="fill:#a3c2c3; stroke:none;" d="M421.333 111.667L421.667 112.333L421.333 111.667M131 112L132 113L131 112z"/>
<path style="fill:#33787a; stroke:none;" d="M160 112L161 113L160 112M218 112L219 113L218 112z"/>
<path style="fill:#a3c2c3; stroke:none;" d="M249 112L250 113L249 112z"/>
<path style="fill:#33787a; stroke:none;" d="M309 112L310 113L309 112M333 112L334 113L333 112z"/>
<path style="fill:#a3c2c3; stroke:none;" d="M334 112L335 113L334 112z"/>
<path style="fill:#33787a; stroke:none;" d="M78.3333 113.667L78.6667 114.333L78.3333 113.667z"/>
<path style="fill:#a3c2c3; stroke:none;" d="M161 113L162 114L161 113z"/>
<path style="fill:#619698; stroke:none;" d="M217 113L218 114L217 113z"/>
<path style="fill:#33787a; stroke:none;" d="M308 113L309 114L308 113z"/>
<path style="fill:#a3c2c3; stroke:none;" d="M335 113L336 114L335 113z"/>
<path style="fill:#619698; stroke:none;" d="M421 113L422 114L421 113M130 114L131 115L130 114z"/>
<path style="fill:#a3c2c3; stroke:none;" d="M216 114L217 115L216 114z"/>
<path style="fill:#619698; stroke:none;" d="M250 114L251 115L250 114z"/>
<path style="fill:#a3c2c3; stroke:none;" d="M336 114L337 115L336 114z"/>
<path style="fill:#33787a; stroke:none;" d="M387.333 114.667L387.667 115.333L387.333 114.667z"/>
<path style="fill:#619698; stroke:none;" d="M389 114L390 115L389 114z"/>
<path style="fill:#a3c2c3; stroke:none;" d="M390.667 114.333L391.333 114.667L390.667 114.333M420 114L421 115L420 114z"/>
<path style="fill:#619698; stroke:none;" d="M162 115L163 116L162 115M216 115L217 116L216 115z"/>
<path style="fill:#33787a; stroke:none;" d="M306 115L307 116L306 115z"/>
<path style="fill:#619698; stroke:none;" d="M394 115L395 116L394 115z"/>
<path style="fill:#a3c2c3; stroke:none;" d="M395.667 115.333L396.333 115.667L395.667 115.333M419 115L420 116L419 115z"/>
<path style="fill:#619698; stroke:none;" d="M129 116L130 117L129 116z"/>
<path style="fill:#33787a; stroke:none;" d="M216 116L216 129L217 129L216 116z"/>
<path style="fill:#a3c2c3; stroke:none;" d="M251 116L251 131L252 131L251 116z"/>
<path style="fill:#619698; stroke:none;" d="M305 116L306 117L305 116M337 116L338 117L337 116M398 116L399 117L398 116z"/>
<path style="fill:#a3c2c3; stroke:none;" d="M399.667 116.333L400.333 116.667L399.667 116.333z"/>
<path style="fill:#619698; stroke:none;" d="M418 116L419 117L418 116z"/>
<path style="fill:#33787a; stroke:none;" d="M129 117L130 118L129 117z"/>
<path style="fill:#619698; stroke:none;" d="M163 117L164 118L163 117z"/>
<path style="fill:#33787a; stroke:none;" d="M402 117L403 118L402 117z"/>
<path style="fill:#619698; stroke:none;" d="M403 117L404 118L403 117z"/>
<path style="fill:#a3c2c3; stroke:none;" d="M404 117L405 118L404 117M415 117L416 118L415 117z"/>
<path style="fill:#619698; stroke:none;" d="M416 117L417 118L416 117z"/>
<path style="fill:#a3c2c3; stroke:none;" d="M128.333 118.667L128.667 119.333L128.333 118.667z"/>
<path style="fill:#33787a; stroke:none;" d="M163 118L164 119L163 118z"/>
<path style="fill:#619698; stroke:none;" d="M304 118L305 119L304 118M338.333 118.667L338.667 119.333L338.333 118.667z"/>
<path style="fill:#33787a; stroke:none;" d="M407 118L408 119L407 118z"/>
<path style="fill:#619698; stroke:none;" d="M408 118L409 119L408 118z"/>
<path style="fill:#a3c2c3; stroke:none;" d="M409 118L410 119L409 118z"/>
<path style="fill:#619698; stroke:none;" d="M410.667 118.333L411.333 118.667L410.667 118.333z"/>
<path style="fill:#33787a; stroke:none;" d="M412 118L413 119L412 118z"/>
<path style="fill:#a3c2c3; stroke:none;" d="M79 119L79 124L80 124L79 119z"/>
<path style="fill:#33787a; stroke:none;" d="M304 119L305 120L304 119z"/>
<path style="fill:#a3c2c3; stroke:none;" d="M386 119L386 123L387 123L386 119M164 120L164 123L165 123L164 120z"/>
<path style="fill:#33787a; stroke:none;" d="M338 120L338 123L339 123L338 120z"/>
<path style="fill:#a3c2c3; stroke:none;" d="M303 121L303 125L304 125L303 121z"/>
<path style="fill:#619698; stroke:none;" d="M164 123L164 128L165 128L164 123M338 123L338 126L339 126L338 123M386 123L386 126L387 126L386 123M79 124L79 127L80 127L79 124z"/>
<path style="fill:#33787a; stroke:none;" d="M129 125L129 128L130 128L129 125z"/>
<path style="fill:#619698; stroke:none;" d="M303 125L303 129L304 129L303 125z"/>
<path style="fill:#a3c2c3; stroke:none;" d="M338 126L338 130L339 130L338 126z"/>
<path style="fill:#33787a; stroke:none;" d="M386.333 126.667L386.667 127.333L386.333 126.667M79 127L79 130L80 130L79 127z"/>
<path style="fill:#619698; stroke:none;" d="M129 128L129 131L130 131L129 128z"/>
<path style="fill:#33787a; stroke:none;" d="M164 128L164 132L165 132L164 128z"/>
<path style="fill:#619698; stroke:none;" d="M216 129L216 151L217 151L216 129z"/>
<path style="fill:#33787a; stroke:none;" d="M303 129L303 132L304 132L303 129z"/>
<path style="fill:#a3c2c3; stroke:none;" d="M129 131L129 136L130 136L129 131M385 132L385 136L386 136L385 132M80 133L80 138L81 138L80 133z"/>
<path style="fill:#33787a; stroke:none;" d="M337 134L337 137L338 137L337 134z"/>
<path style="fill:#619698; stroke:none;" d="M385 136L385 139L386 139L385 136z"/>
<path style="fill:#a3c2c3; stroke:none;" d="M302 137L302 144L303 144L302 137z"/>
<path style="fill:#619698; stroke:none;" d="M337 137L337 140L338 140L337 137M80 138L80 141L81 141L80 138z"/>
<path style="fill:#a3c2c3; stroke:none;" d="M165 138L165 145L166 145L165 138z"/>
<path style="fill:#33787a; stroke:none;" d="M385.333 139.667L385.667 140.333L385.333 139.667M130.333 140.667L130.667 141.333L130.333 140.667z"/>
<path style="fill:#a3c2c3; stroke:none;" d="M337 140L337 144L338 144L337 140z"/>
<path style="fill:#33787a; stroke:none;" d="M80 141L80 144L81 144L80 141z"/>
<path style="fill:#619698; stroke:none;" d="M130 142L130 145L131 145L130 142M302 144L302 148L303 148L302 144z"/>
<path style="fill:#a3c2c3; stroke:none;" d="M130 145L130 150L131 150L130 145z"/>
<path style="fill:#619698; stroke:none;" d="M165 145L165 150L166 150L165 145z"/>
<path style="fill:#a3c2c3; stroke:none;" d="M384 145L384 149L385 149L384 145M81 147L81 152L82 152L81 147z"/>
<path style="fill:#33787a; stroke:none;" d="M302 148L302 152L303 152L302 148M336.333 148.667L336.667 149.333L336.333 148.667z"/>
<path style="fill:#619698; stroke:none;" d="M384 149L384 152L385 152L384 149z"/>
<path style="fill:#33787a; stroke:none;" d="M165 150L165 154L166 154L165 150z"/>
<path style="fill:#619698; stroke:none;" d="M336 150L336 153L337 153L336 150z"/>
<path style="fill:#a3c2c3; stroke:none;" d="M216 151L216 177L217 177L216 151z"/>
<path style="fill:#619698; stroke:none;" d="M81 152L81 155L82 155L81 152z"/>
<path style="fill:#33787a; stroke:none;" d="M250 152L250 166L251 166L250 152M384.333 152.667L384.667 153.333L384.333 152.667z"/>
<path style="fill:#a3c2c3; stroke:none;" d="M336 153L336 157L337 157L336 153z"/>
<path style="fill:#33787a; stroke:none;" d="M131 154L131 157L132 157L131 154M81.3333 155.667L81.6667 156.333L81.3333 155.667z"/>
<path style="fill:#619698; stroke:none;" d="M131 157L131 160L132 160L131 157z"/>
<path style="fill:#a3c2c3; stroke:none;" d="M301 157L301 164L302 164L301 157M383 158L383 162L384 162L383 158M131 160L131 164L132 164L131 160M82 161L82 166L83 166L82 161M166 161L166 168L167 168L166 161z"/>
<path style="fill:#33787a; stroke:none;" d="M335.333 161.667L335.667 162.333L335.333 161.667z"/>
<path style="fill:#619698; stroke:none;" d="M383 162L383 165L384 165L383 162M335 163L335 166L336 166L335 163M301 164L301 168L302 168L301 164z"/>
<path style="fill:#33787a; stroke:none;" d="M383.333 165.667L383.667 166.333L383.333 165.667z"/>
<path style="fill:#619698; stroke:none;" d="M82 166L82 169L83 169L82 166M250 166L250 182L251 182L250 166z"/>
<path style="fill:#a3c2c3; stroke:none;" d="M335 166L335 170L336 170L335 166z"/>
<path style="fill:#33787a; stroke:none;" d="M132 168L132 171L133 171L132 168z"/>
<path style="fill:#619698; stroke:none;" d="M166 168L166 172L167 172L166 168z"/>
<path style="fill:#33787a; stroke:none;" d="M301 168L301 172L302 172L301 168M82.3333 169.667L82.6667 170.333L82.3333 169.667z"/>
<path style="fill:#619698; stroke:none;" d="M132 171L132 174L133 174L132 171z"/>
<path style="fill:#a3c2c3; stroke:none;" d="M382 171L382 175L383 175L382 171z"/>
<path style="fill:#33787a; stroke:none;" d="M166 172L166 177L167 177L166 172z"/>
<path style="fill:#a3c2c3; stroke:none;" d="M132 174L132 178L133 178L132 174z"/>
<path style="fill:#33787a; stroke:none;" d="M334 174L334 177L335 177L334 174z"/>
<path style="fill:#a3c2c3; stroke:none;" d="M83 175L83 179L84 179L83 175z"/>
<path style="fill:#619698; stroke:none;" d="M382 175L382 178L383 178L382 175M334 177L334 180L335 180L334 177z"/>
<path style="fill:#a3c2c3; stroke:none;" d="M300 178L300 184L301 184L300 178z"/>
<path style="fill:#33787a; stroke:none;" d="M382.333 178.667L382.667 179.333L382.333 178.667z"/>
<path style="fill:#619698; stroke:none;" d="M83 179L83 183L84 183L83 179z"/>
<path style="fill:#a3c2c3; stroke:none;" d="M334 180L334 184L335 184L334 180z"/>
<path style="fill:#33787a; stroke:none;" d="M133 182L133 185L134 185L133 182z"/>
<path style="fill:#a3c2c3; stroke:none;" d="M250 182L250 205L251 205L250 182z"/>
<path style="fill:#33787a; stroke:none;" d="M83.3333 183.667L83.6667 184.333L83.3333 183.667z"/>
<path style="fill:#a3c2c3; stroke:none;" d="M167 183L167 190L168 190L167 183z"/>
<path style="fill:#619698; stroke:none;" d="M300 184L300 189L301 189L300 184z"/>
<path style="fill:#a3c2c3; stroke:none;" d="M381 184L381 188L382 188L381 184z"/>
<path style="fill:#619698; stroke:none;" d="M133 185L133 188L134 188L133 185z"/>
<path style="fill:#33787a; stroke:none;" d="M333 187L333 190L334 190L333 187z"/>
<path style="fill:#a3c2c3; stroke:none;" d="M133 188L133 192L134 192L133 188z"/>
<path style="fill:#619698; stroke:none;" d="M381 188L381 191L382 191L381 188z"/>
<path style="fill:#a3c2c3; stroke:none;" d="M84 189L84 193L85 193L84 189z"/>
<path style="fill:#33787a; stroke:none;" d="M300 189L300 192L301 192L300 189z"/>
<path style="fill:#619698; stroke:none;" d="M167 190L167 195L168 195L167 190M333 190L333 193L334 193L333 190z"/>
<path style="fill:#33787a; stroke:none;" d="M381.333 191.667L381.667 192.333L381.333 191.667z"/>
<path style="fill:#619698; stroke:none;" d="M84 193L84 196L85 196L84 193z"/>
<path style="fill:#a3c2c3; stroke:none;" d="M333 193L333 197L334 197L333 193z"/>
<path style="fill:#33787a; stroke:none;" d="M167 195L167 199L168 199L167 195M84 196L84 199L85 199L84 196M134 196L134 199L135 199L134 196z"/>
<path style="fill:#a3c2c3; stroke:none;" d="M380 197L380 201L381 201L380 197M299 198L299 205L300 205L299 198z"/>
<path style="fill:#619698; stroke:none;" d="M134 199L134 202L135 202L134 199z"/>
<path style="fill:#33787a; stroke:none;" d="M217 200L217 214L218 214L217 200M332.333 201.667L332.667 202.333L332.333 201.667z"/>
<path style="fill:#619698; stroke:none;" d="M380 201L380 204L381 204L380 201z"/>
<path style="fill:#a3c2c3; stroke:none;" d="M134 202L134 206L135 206L134 202M85 203L85 207L86 207L85 203z"/>
<path style="fill:#619698; stroke:none;" d="M332 203L332 206L333 206L332 203z"/>
<path style="fill:#33787a; stroke:none;" d="M380.333 204.667L380.667 205.333L380.333 204.667z"/>
<path style="fill:#619698; stroke:none;" d="M299 205L299 210L300 210L299 205z"/>
<path style="fill:#a3c2c3; stroke:none;" d="M168 206L168 213L169 213L168 206M332 206L332 210L333 210L332 206z"/>
<path style="fill:#619698; stroke:none;" d="M85 207L85 210L86 210L85 207z"/>
<path style="fill:#33787a; stroke:none;" d="M85.3333 210.667L85.6667 211.333L85.3333 210.667M135 210L135 213L136 213L135 210M299 210L299 213L300 213L299 210z"/>
<path style="fill:#a3c2c3; stroke:none;" d="M379 210L379 214L380 214L379 210z"/>
<path style="fill:#619698; stroke:none;" d="M135 213L135 216L136 216L135 213M168 213L168 218L169 218L168 213M217 214L217 232L218 232L217 214z"/>
<path style="fill:#33787a; stroke:none;" d="M331.333 214.667L331.667 215.333L331.333 214.667z"/>
<path style="fill:#619698; stroke:none;" d="M379 214L379 217L380 217L379 214z"/>
<path style="fill:#a3c2c3; stroke:none;" d="M86 216L86 221L87 221L86 216M135 216L135 220L136 220L135 216z"/>
<path style="fill:#619698; stroke:none;" d="M331 216L331 219L332 219L331 216z"/>
<path style="fill:#33787a; stroke:none;" d="M379 217L379 220L380 220L379 217M168 218L168 222L169 222L168 218z"/>
<path style="fill:#a3c2c3; stroke:none;" d="M331 219L331 223L332 223L331 219M298 220L298 226L299 226L298 220z"/>
<path style="fill:#619698; stroke:none;" d="M86 221L86 224L87 224L86 221z"/>
<path style="fill:#a3c2c3; stroke:none;" d="M378 223L378 227L379 227L378 223z"/>
<path style="fill:#33787a; stroke:none;" d="M86.3333 224.667L86.6667 225.333L86.3333 224.667M136.333 224.667L136.667 225.333L136.333 224.667M249 225L249 239L250 239L249 225z"/>
<path style="fill:#619698; stroke:none;" d="M136 226L136 229L137 229L136 226M298 226L298 231L299 231L298 226z"/>
<path style="fill:#33787a; stroke:none;" d="M330.333 227.667L330.667 228.333L330.333 227.667z"/>
<path style="fill:#619698; stroke:none;" d="M378 227L378 230L379 230L378 227z"/>
<path style="fill:#a3c2c3; stroke:none;" d="M169 228L169 236L170 236L169 228M136 229L136 234L137 234L136 229z"/>
<path style="fill:#619698; stroke:none;" d="M330 229L330 232L331 232L330 229z"/>
<path style="fill:#a3c2c3; stroke:none;" d="M87 230L87 234L88 234L87 230z"/>
<path style="fill:#33787a; stroke:none;" d="M378 230L378 233L379 233L378 230M298 231L298 234L299 234L298 231z"/>
<path style="fill:#a3c2c3; stroke:none;" d="M217 232L217 257L218 257L217 232M330 232L330 237L331 237L330 232z"/>
<path style="fill:#619698; stroke:none;" d="M87 234L87 237L88 237L87 234M169 236L169 241L170 241L169 236z"/>
<path style="fill:#a3c2c3; stroke:none;" d="M377 236L377 241L378 241L377 236z"/>
<path style="fill:#33787a; stroke:none;" d="M87 237L87 240L88 240L87 237M137.333 238.667L137.667 239.333L137.333 238.667z"/>
<path style="fill:#619698; stroke:none;" d="M249 239L249 255L250 255L249 239M137 240L137 243L138 243L137 240z"/>
<path style="fill:#a3c2c3; stroke:none;" d="M297 240L297 247L298 247L297 240z"/>
<path style="fill:#33787a; stroke:none;" d="M329 240L329 243L330 243L329 240M169 241L169 245L170 245L169 241z"/>
<path style="fill:#619698; stroke:none;" d="M377 241L377 244L378 244L377 241z"/>
<path style="fill:#a3c2c3; stroke:none;" d="M137 243L137 247L138 247L137 243z"/>
<path style="fill:#619698; stroke:none;" d="M329 243L329 246L330 246L329 243z"/>
<path style="fill:#a3c2c3; stroke:none;" d="M88 244L88 248L89 248L88 244z"/>
<path style="fill:#33787a; stroke:none;" d="M377.333 244.667L377.667 245.333L377.333 244.667z"/>
<path style="fill:#a3c2c3; stroke:none;" d="M329 246L329 250L330 250L329 246z"/>
<path style="fill:#619698; stroke:none;" d="M297 247L297 252L298 252L297 247M88 248L88 251L89 251L88 248z"/>
<path style="fill:#a3c2c3; stroke:none;" d="M376 250L376 254L377 254L376 250z"/>
<path style="fill:#33787a; stroke:none;" d="M88.3333 251.667L88.6667 252.333L88.3333 251.667M138 251L138 254L139 254L138 251z"/>
<path style="fill:#a3c2c3; stroke:none;" d="M170 251L170 259L171 259L170 251z"/>
<path style="fill:#33787a; stroke:none;" d="M297 252L297 256L298 256L297 252z"/>
<path style="fill:#619698; stroke:none;" d="M138 254L138 257L139 257L138 254z"/>
<path style="fill:#33787a; stroke:none;" d="M328.333 254.667L328.667 255.333L328.333 254.667z"/>
<path style="fill:#619698; stroke:none;" d="M376 254L376 257L377 257L376 254z"/>
<path style="fill:#a3c2c3; stroke:none;" d="M249 255L249 278L250 278L249 255z"/>
<path style="fill:#619698; stroke:none;" d="M328 256L328 259L329 259L328 256z"/>
<path style="fill:#a3c2c3; stroke:none;" d="M89 257L89 262L90 262L89 257M138 257L138 261L139 261L138 257z"/>
<path style="fill:#33787a; stroke:none;" d="M376.333 257.667L376.667 258.333L376.333 257.667z"/>
<path style="fill:#619698; stroke:none;" d="M170 259L170 264L171 264L170 259z"/>
<path style="fill:#a3c2c3; stroke:none;" d="M328 259L328 263L329 263L328 259z"/>
<path style="fill:#619698; stroke:none;" d="M89 262L89 265L90 265L89 262z"/>
<path style="fill:#a3c2c3; stroke:none;" d="M296 262L296 268L297 268L296 262M375 263L375 267L376 267L375 263z"/>
<path style="fill:#33787a; stroke:none;" d="M170 264L170 268L171 268L170 264M89.3333 265.667L89.6667 266.333L89.3333 265.667M139.333 265.667L139.667 266.333L139.333 265.667z"/>
<path style="fill:#619698; stroke:none;" d="M139 267L139 270L140 270L139 267z"/>
<path style="fill:#33787a; stroke:none;" d="M327.333 267.667L327.667 268.333L327.333 267.667z"/>
<path style="fill:#619698; stroke:none;" d="M375 267L375 270L376 270L375 267M296 268L296 273L297 273L296 268M327 269L327 272L328 272L327 269z"/>
<path style="fill:#a3c2c3; stroke:none;" d="M139 270L139 275L140 275L139 270z"/>
<path style="fill:#33787a; stroke:none;" d="M375.333 270.667L375.667 271.333L375.333 270.667z"/>
<path style="fill:#a3c2c3; stroke:none;" d="M90 271L90 275L91 275L90 271M327 272L327 276L328 276L327 272z"/>
<path style="fill:#33787a; stroke:none;" d="M296 273L296 277L297 277L296 273z"/>
<path style="fill:#a3c2c3; stroke:none;" d="M171 274L171 281L172 281L171 274z"/>
<path style="fill:#619698; stroke:none;" d="M90 275L90 278L91 278L90 275z"/>
<path style="fill:#a3c2c3; stroke:none;" d="M374 276L374 280L375 280L374 276z"/>
<path style="fill:#33787a; stroke:none;" d="M90 278L90 281L91 281L90 278M140.333 279.667L140.667 280.333L140.333 279.667M326.333 280.667L326.667 281.333L326.333 280.667z"/>
<path style="fill:#619698; stroke:none;" d="M374 280L374 283L375 283L374 280M140 281L140 284L141 284L140 281M171 281L171 286L172 286L171 281z"/>
<path style="fill:#33787a; stroke:none;" d="M218 281L218 294L219 294L218 281z"/>
<path style="fill:#619698; stroke:none;" d="M326 282L326 285L327 285L326 282z"/>
<path style="fill:#a3c2c3; stroke:none;" d="M295 283L295 290L296 290L295 283z"/>
<path style="fill:#33787a; stroke:none;" d="M374 283L374 286L375 286L374 283z"/>
<path style="fill:#a3c2c3; stroke:none;" d="M140 284L140 288L141 288L140 284M91 285L91 289L92 289L91 285M326 285L326 290L327 290L326 285z"/>
<path style="fill:#33787a; stroke:none;" d="M171 286L171 290L172 290L171 286z"/>
<path style="fill:#619698; stroke:none;" d="M91 289L91 292L92 292L91 289z"/>
<path style="fill:#a3c2c3; stroke:none;" d="M373 289L373 295L374 295L373 289z"/>
<path style="fill:#619698; stroke:none;" d="M295 290L295 295L296 295L295 290z"/>
<path style="fill:#33787a; stroke:none;" d="M91.3333 292.667L91.6667 293.333L91.3333 292.667M141 292L141 295L142 295L141 292M325 293L325 296L326 296L325 293z"/>
<path style="fill:#619698; stroke:none;" d="M218 294L218 310L219 310L218 294M141 295L141 298L142 298L141 295z"/>
<path style="fill:#33787a; stroke:none;" d="M295 295L295 299L296 299L295 295z"/>
<path style="fill:#619698; stroke:none;" d="M373 295L373 299L374 299L373 295M325 296L325 299L326 299L325 296z"/>
<path style="fill:#a3c2c3; stroke:none;" d="M172 297L172 304L173 304L172 297M92 298L92 302L93 302L92 298M141 298L141 302L142 302L141 298z"/>
<path style="fill:#33787a; stroke:none;" d="M248 298L248 311L249 311L248 298z"/>
<path style="fill:#a3c2c3; stroke:none;" d="M325 299L325 303L326 303L325 299z"/>
<path style="fill:#33787a; stroke:none;" d="M373 299L373 302L374 302L373 299z"/>
<path style="fill:#619698; stroke:none;" d="M92 302L92 305L93 305L92 302M172 304L172 309L173 309L172 304z"/>
<path style="fill:#33787a; stroke:none;" d="M92 305L92 308L93 308L92 305z"/>
<path style="fill:#a3c2c3; stroke:none;" d="M294 305L294 312L295 312L294 305z"/>
<path style="fill:#33787a; stroke:none;" d="M142.333 306.667L142.667 307.333L142.333 306.667M324 306L324 309L325 309L324 306z"/>
<path style="fill:#a3c2c3; stroke:none;" d="M372 306L372 310L373 310L372 306z"/>
<path style="fill:#619698; stroke:none;" d="M142 308L142 311L143 311L142 308z"/>
<path style="fill:#33787a; stroke:none;" d="M172 309L172 313L173 313L172 309z"/>
<path style="fill:#619698; stroke:none;" d="M324 309L324 312L325 312L324 309z"/>
<path style="fill:#a3c2c3; stroke:none;" d="M218 310L218 334L219 334L218 310z"/>
<path style="fill:#619698; stroke:none;" d="M372 310L372 313L373 313L372 310z"/>
<path style="fill:#a3c2c3; stroke:none;" d="M142 311L142 316L143 316L142 311z"/>
<path style="fill:#619698; stroke:none;" d="M248 311L248 327L249 327L248 311z"/>
<path style="fill:#a3c2c3; stroke:none;" d="M93 312L93 316L94 316L93 312z"/>
<path style="fill:#619698; stroke:none;" d="M294 312L294 316L295 316L294 312z"/>
<path style="fill:#a3c2c3; stroke:none;" d="M324 312L324 316L325 316L324 312z"/>
<path style="fill:#33787a; stroke:none;" d="M372.333 313.667L372.667 314.333L372.333 313.667z"/>
<path style="fill:#619698; stroke:none;" d="M93 316L93 319L94 319L93 316z"/>
<path style="fill:#33787a; stroke:none;" d="M294 316L294 320L295 320L294 316M93.3333 319.667L93.6667 320.333L93.3333 319.667M143 319L143 322L144 322L143 319M323 319L323 322L324 322L323 319z"/>
<path style="fill:#a3c2c3; stroke:none;" d="M371 319L371 323L372 323L371 319M173 320L173 327L174 327L173 320z"/>
<path style="fill:#619698; stroke:none;" d="M143 322L143 325L144 325L143 322M323 322L323 325L324 325L323 322M371 323L371 326L372 326L371 323z"/>
<path style="fill:#a3c2c3; stroke:none;" d="M94 325L94 330L95 330L94 325M143 325L143 329L144 329L143 325M323 325L323 329L324 329L323 325M293 326L293 333L294 333L293 326z"/>
<path style="fill:#33787a; stroke:none;" d="M371 326L371 329L372 329L371 326z"/>
<path style="fill:#619698; stroke:none;" d="M173 327L173 332L174 332L173 327z"/>
<path style="fill:#a3c2c3; stroke:none;" d="M248 327L248 348L249 348L248 327z"/>
<path style="fill:#619698; stroke:none;" d="M94 330L94 333L95 333L94 330z"/>
<path style="fill:#33787a; stroke:none;" d="M173 332L173 337L174 337L173 332z"/>
<path style="fill:#a3c2c3; stroke:none;" d="M370 332L370 337L371 337L370 332z"/>
<path style="fill:#33787a; stroke:none;" d="M94.3333 333.667L94.6667 334.333L94.3333 333.667M144.333 333.667L144.667 334.333L144.333 333.667z"/>
<path style="fill:#619698; stroke:none;" d="M293 333L293 337L294 337L293 333z"/>
<path style="fill:#33787a; stroke:none;" d="M322.333 333.667L322.667 334.333L322.333 333.667z"/>
<path style="fill:#619698; stroke:none;" d="M144 335L144 338L145 338L144 335M322 335L322 338L323 338L322 335z"/>
<path style="fill:#33787a; stroke:none;" d="M293 337L293 341L294 341L293 337z"/>
<path style="fill:#619698; stroke:none;" d="M370.333 337.667L370.667 338.333L370.333 337.667z"/>
<path style="fill:#a3c2c3; stroke:none;" d="M144 338L144 342L145 342L144 338M322 338L322 342L323 342L322 338M95 339L95 343L96 343L95 339z"/>
<path style="fill:#33787a; stroke:none;" d="M370 339L370 342L371 342L370 339z"/>
<path style="fill:#619698; stroke:none;" d="M95 343L95 346L96 346L95 343z"/>
<path style="fill:#a3c2c3; stroke:none;" d="M174 343L174 350L175 350L174 343z"/>
<path style="fill:#33787a; stroke:none;" d="M95 346L95 349L96 349L95 346M145 346L145 349L146 349L145 346M321.333 346.667L321.667 347.333L321.333 346.667z"/>
<path style="fill:#a3c2c3; stroke:none;" d="M369 346L369 350L370 350L369 346M292 348L292 354L293 354L292 348z"/>
<path style="fill:#619698; stroke:none;" d="M321 348L321 351L322 351L321 348M145 349L145 352L146 352L145 349M174 350L174 356L175 356L174 350M369 350L369 353L370 353L369 350z"/>
<path style="fill:#a3c2c3; stroke:none;" d="M321 351L321 355L322 355L321 351M96 352L96 357L97 357L96 352M145 352L145 356L146 356L145 352z"/>
<path style="fill:#33787a; stroke:none;" d="M369.333 353.667L369.667 354.333L369.333 353.667z"/>
<path style="fill:#619698; stroke:none;" d="M292 354L292 359L293 359L292 354z"/>
<path style="fill:#33787a; stroke:none;" d="M174 356L174 360L175 360L174 356z"/>
<path style="fill:#619698; stroke:none;" d="M96 357L96 360L97 360L96 357z"/>
<path style="fill:#33787a; stroke:none;" d="M219 357L219 372L220 372L219 357M292 359L292 363L293 363L292 359M320.333 359.667L320.667 360.333L320.333 359.667z"/>
<path style="fill:#a3c2c3; stroke:none;" d="M368 359L368 363L369 363L368 359z"/>
<path style="fill:#33787a; stroke:none;" d="M96.3333 360.667L96.6667 361.333L96.3333 360.667M146.333 360.667L146.667 361.333L146.333 360.667z"/>
<path style="fill:#619698; stroke:none;" d="M320 361L320 364L321 364L320 361M146 362L146 366L147 366L146 362M368 363L368 366L369 366L368 363z"/>
<path style="fill:#a3c2c3; stroke:none;" d="M320 364L320 368L321 368L320 364M97 366L97 370L98 370L97 366M146 366L146 370L147 370L146 366z"/>
<path style="fill:#33787a; stroke:none;" d="M368.333 366.667L368.667 367.333L368.333 366.667z"/>
<path style="fill:#a3c2c3; stroke:none;" d="M175 367L175 374L176 374L175 367z"/>
<path style="fill:#33787a; stroke:none;" d="M247 368L247 380L248 380L247 368z"/>
<path style="fill:#a3c2c3; stroke:none;" d="M291 369L291 376L292 376L291 369z"/>
<path style="fill:#619698; stroke:none;" d="M97 370L97 373L98 373L97 370M219 372L219 388L220 388L219 372z"/>
<path style="fill:#33787a; stroke:none;" d="M319.333 372.667L319.667 373.333L319.333 372.667z"/>
<path style="fill:#a3c2c3; stroke:none;" d="M367 372L367 376L368 376L367 372z"/>
<path style="fill:#33787a; stroke:none;" d="M97 373L97 376L98 376L97 373M147.333 374.667L147.667 375.333L147.333 374.667z"/>
<path style="fill:#619698; stroke:none;" d="M175 374L175 379L176 379L175 374M319 374L319 377L320 377L319 374M147 376L147 379L148 379L147 376M291 376L291 381L292 381L291 376M367 376L367 379L368 379L367 376z"/>
<path style="fill:#a3c2c3; stroke:none;" d="M319 377L319 381L320 381L319 377M147 379L147 383L148 383L147 379z"/>
<path style="fill:#33787a; stroke:none;" d="M175 379L175 384L176 384L175 379M367.333 379.667L367.667 380.333L367.333 379.667z"/>
<path style="fill:#a3c2c3; stroke:none;" d="M98 380L98 384L99 384L98 380z"/>
<path style="fill:#619698; stroke:none;" d="M247 380L247 395L248 395L247 380z"/>
<path style="fill:#33787a; stroke:none;" d="M291 381L291 385L292 385L291 381z"/>
<path style="fill:#619698; stroke:none;" d="M98 384L98 387L99 387L98 384z"/>
<path style="fill:#33787a; stroke:none;" d="M318.333 385.667L318.667 386.333L318.333 385.667z"/>
<path style="fill:#a3c2c3; stroke:none;" d="M366 385L366 389L367 389L366 385z"/>
<path style="fill:#33787a; stroke:none;" d="M98.3333 387.667L98.6667 388.333L98.3333 387.667M148.333 387.667L148.667 388.333L148.333 387.667z"/>
<path style="fill:#619698; stroke:none;" d="M318 387L318 390L319 390L318 387z"/>
<path style="fill:#a3c2c3; stroke:none;" d="M219 388L219 412L220 412L219 388z"/>
<path style="fill:#619698; stroke:none;" d="M148 389L148 392L149 392L148 389M366 389L366 392L367 392L366 389z"/>
<path style="fill:#a3c2c3; stroke:none;" d="M176 390L176 398L177 398L176 390M318 390L318 394L319 394L318 390M290 391L290 398L291 398L290 391M148 392L148 397L149 397L148 392z"/>
<path style="fill:#33787a; stroke:none;" d="M366.333 392.667L366.667 393.333L366.333 392.667z"/>
<path style="fill:#a3c2c3; stroke:none;" d="M99 393L99 398L100 398L99 393M247 395L247 416L248 416L247 395z"/>
<path style="fill:#619698; stroke:none;" d="M99 398L99 401L100 401L99 398M176 398L176 403L177 403L176 398M290 398L290 402L291 402L290 398z"/>
<path style="fill:#33787a; stroke:none;" d="M317.333 398.667L317.667 399.333L317.333 398.667z"/>
<path style="fill:#a3c2c3; stroke:none;" d="M365 398L365 402L366 402L365 398z"/>
<path style="fill:#619698; stroke:none;" d="M317 400L317 403L318 403L317 400z"/>
<path style="fill:#33787a; stroke:none;" d="M99.3333 401.667L99.6667 402.333L99.3333 401.667M149.333 401.667L149.667 402.333L149.333 401.667M290 402L290 406L291 406L290 402z"/>
<path style="fill:#619698; stroke:none;" d="M365 402L365 405L366 405L365 402M149 403L149 406L150 406L149 403z"/>
<path style="fill:#33787a; stroke:none;" d="M176 403L176 407L177 407L176 403z"/>
<path style="fill:#a3c2c3; stroke:none;" d="M317 403L317 407L318 407L317 403z"/>
<path style="fill:#33787a; stroke:none;" d="M365 405L365 408L366 408L365 405z"/>
<path style="fill:#a3c2c3; stroke:none;" d="M149 406L149 410L150 410L149 406M100 407L100 411L101 411L100 407z"/>
<path style="fill:#619698; stroke:none;" d="M100 411L100 414L101 414L100 411z"/>
<path style="fill:#33787a; stroke:none;" d="M316.333 411.667L316.667 412.333L316.333 411.667z"/>
<path style="fill:#a3c2c3; stroke:none;" d="M364 411L364 415L365 415L364 411M289 412L289 419L290 419L289 412z"/>
<path style="fill:#619698; stroke:none;" d="M316 413L316 416L317 416L316 413z"/>
<path style="fill:#33787a; stroke:none;" d="M100 414L100 417L101 417L100 414M150 414L150 417L151 417L150 414z"/>
<path style="fill:#a3c2c3; stroke:none;" d="M177 414L177 422L178 422L177 414z"/>
<path style="fill:#619698; stroke:none;" d="M364 415L364 418L365 418L364 415z"/>
<path style="fill:#a3c2c3; stroke:none;" d="M316 416L316 420L317 420L316 416z"/>
<path style="fill:#619698; stroke:none;" d="M150 417L150 420L151 420L150 417z"/>
<path style="fill:#33787a; stroke:none;" d="M364.333 418.667L364.667 419.333L364.333 418.667z"/>
<path style="fill:#619698; stroke:none;" d="M289 419L289 424L290 424L289 419z"/>
<path style="fill:#a3c2c3; stroke:none;" d="M101 420L101 425L102 425L101 420M150 420L150 424L151 424L150 420z"/>
<path style="fill:#619698; stroke:none;" d="M177 422L177 427L178 427L177 422z"/>
<path style="fill:#33787a; stroke:none;" d="M289 424L289 428L290 428L289 424M315.333 424.667L315.667 425.333L315.333 424.667z"/>
<path style="fill:#a3c2c3; stroke:none;" d="M363 424L363 428L364 428L363 424z"/>
<path style="fill:#619698; stroke:none;" d="M101 425L101 428L102 428L101 425M315 426L315 429L316 429L315 426z"/>
<path style="fill:#33787a; stroke:none;" d="M177 427L177 432L178 432L177 427M101.333 428.667L101.667 429.333L101.333 428.667M151.333 428.667L151.667 429.333L151.333 428.667z"/>
<path style="fill:#619698; stroke:none;" d="M363 428L363 431L364 431L363 428z"/>
<path style="fill:#a3c2c3; stroke:none;" d="M315 429L315 433L316 433L315 429z"/>
<path style="fill:#619698; stroke:none;" d="M151 430L151 433L152 433L151 430z"/>
<path style="fill:#33787a; stroke:none;" d="M363.333 431.667L363.667 432.333L363.333 431.667z"/>
<path style="fill:#a3c2c3; stroke:none;" d="M151 433L151 437L152 437L151 433M102 434L102 438L103 438L102 434z"/>
<path style="fill:#33787a; stroke:none;" d="M220 434L220 448L221 448L220 434z"/>
<path style="fill:#a3c2c3; stroke:none;" d="M288 434L288 441L289 441L288 434z"/>
<path style="fill:#33787a; stroke:none;" d="M246 435L246 445L247 445L246 435M314.333 437.667L314.667 438.333L314.333 437.667z"/>
<path style="fill:#a3c2c3; stroke:none;" d="M362 437L362 441L363 441L362 437z"/>
<path style="fill:#619698; stroke:none;" d="M102 438L102 441L103 441L102 438z"/>
<path style="fill:#a3c2c3; stroke:none;" d="M178 439L178 446L179 446L178 439z"/>
<path style="fill:#619698; stroke:none;" d="M314 439L314 442L315 442L314 439z"/>
<path style="fill:#33787a; stroke:none;" d="M102 441L102 444L103 444L102 441M152.333 441.667L152.667 442.333L152.333 441.667z"/>
<path style="fill:#619698; stroke:none;" d="M288 441L288 446L289 446L288 441M362 441L362 444L363 444L362 441z"/>
<path style="fill:#a3c2c3; stroke:none;" d="M314 442L314 446L315 446L314 442z"/>
<path style="fill:#619698; stroke:none;" d="M152 443L152 446L153 446L152 443z"/>
<path style="fill:#33787a; stroke:none;" d="M362.333 444.667L362.667 445.333L362.333 444.667z"/>
<path style="fill:#619698; stroke:none;" d="M246 445L246 457L247 457L246 445z"/>
<path style="fill:#a3c2c3; stroke:none;" d="M152 446L152 450L153 450L152 446z"/>
<path style="fill:#619698; stroke:none;" d="M178 446L178 452L179 452L178 446z"/>
<path style="fill:#33787a; stroke:none;" d="M288 446L288 450L289 450L288 446z"/>
<path style="fill:#a3c2c3; stroke:none;" d="M103 448L103 452L104 452L103 448z"/>
<path style="fill:#619698; stroke:none;" d="M220 448L220 465L221 465L220 448z"/>
<path style="fill:#33787a; stroke:none;" d="M313 449L313 452L314 452L313 449z"/>
<path style="fill:#a3c2c3; stroke:none;" d="M361 450L361 454L362 454L361 450z"/>
<path style="fill:#619698; stroke:none;" d="M103 452L103 455L104 455L103 452z"/>
<path style="fill:#33787a; stroke:none;" d="M178 452L178 457L179 457L178 452z"/>
<path style="fill:#619698; stroke:none;" d="M313.333 452.667L313.667 453.333L313.333 452.667z"/>
<path style="fill:#33787a; stroke:none;" d="M153.333 454.667L153.667 455.333L153.333 454.667z"/>
<path style="fill:#a3c2c3; stroke:none;" d="M313 454L313 458L314 458L313 454z"/>
<path style="fill:#619698; stroke:none;" d="M361 454L361 457L362 457L361 454z"/>
<path style="fill:#33787a; stroke:none;" d="M103.333 455.667L103.667 456.333L103.333 455.667z"/>
<path style="fill:#619698; stroke:none;" d="M153 456L153 459L154 459L153 456z"/>
<path style="fill:#a3c2c3; stroke:none;" d="M287 456L287 463L288 463L287 456M246 457L246 469L247 469L246 457z"/>
<path style="fill:#33787a; stroke:none;" d="M361.333 457.667L361.667 458.333L361.333 457.667z"/>
<path style="fill:#a3c2c3; stroke:none;" d="M153 459L153 463L154 463L153 459M104 461L104 465L105 465L104 461z"/>
<path style="fill:#33787a; stroke:none;" d="M312.333 462.667L312.667 463.333L312.333 462.667z"/>
<path style="fill:#619698; stroke:none;" d="M287 463L287 468L288 468L287 463z"/>
<path style="fill:#a3c2c3; stroke:none;" d="M360 463L360 467L361 467L360 463z"/>
<path style="fill:#619698; stroke:none;" d="M312 464L312 467L313 467L312 464M104 465L104 468L105 468L104 465z"/>
<path style="fill:#a3c2c3; stroke:none;" d="M179 465L179 472L180 472L179 465M220 465L220 472L221 472L220 465z"/>
<path style="fill:#33787a; stroke:none;" d="M154.333 467.667L154.667 468.333L154.333 467.667z"/>
<path style="fill:#a3c2c3; stroke:none;" d="M312 467L312 473L313 473L312 467z"/>
<path style="fill:#619698; stroke:none;" d="M360.333 467.667L360.667 468.333L360.333 467.667z"/>
<path style="fill:#33787a; stroke:none;" d="M104 468L104 471L105 471L104 468M287 468L287 472L288 472L287 468z"/>
<path style="fill:#619698; stroke:none;" d="M154 469L154 472L155 472L154 469z"/>
<path style="fill:#33787a; stroke:none;" d="M360 469L360 472L361 472L360 469M155 472L156 473L155 472M179 472L180 473L179 472M221 472L222 473L221 472z"/>
<path style="fill:#a3c2c3; stroke:none;" d="M287 472L288 473L287 472z"/>
<path style="fill:#619698; stroke:none;" d="M155 473L156 474L155 473M179 473L180 474L179 473M221 473L222 474L221 473z"/>
<path style="fill:#a3c2c3; stroke:none;" d="M179 474L180 475L179 474M221 474L222 475L221 474z"/>
<path style="fill:#33787a; stroke:none;" d="M245 474L246 475L245 474z"/>
<path style="fill:#619698; stroke:none;" d="M288 474L289 475L288 474M311 474L312 475L311 474z"/>
<path style="fill:#a3c2c3; stroke:none;" d="M105 475L105 479L106 479L105 475z"/>
<path style="fill:#619698; stroke:none;" d="M156 475L157 476L156 475M178 475L179 476L178 475M245 475L246 476L245 475z"/>
<path style="fill:#a3c2c3; stroke:none;" d="M359 475L359 479L360 479L359 475z"/>
<path style="fill:#619698; stroke:none;" d="M222 476L223 477L222 476z"/>
<path style="fill:#a3c2c3; stroke:none;" d="M245 476L246 477L245 476z"/>
<path style="fill:#619698; stroke:none;" d="M289 476L290 477L289 476z"/>
<path style="fill:#a3c2c3; stroke:none;" d="M310 476L311 477L310 476M157 477L158 478L157 477M177 477L178 478L177 477z"/>
<path style="fill:#33787a; stroke:none;" d="M244 477L245 478L244 477M290 477L291 478L290 477z"/>
<path style="fill:#619698; stroke:none;" d="M309 477L310 478L309 477z"/>
<path style="fill:#a3c2c3; stroke:none;" d="M158 478L159 479L158 478z"/>
<path style="fill:#619698; stroke:none;" d="M176 478L177 479L176 478M223 478L224 479L223 478z"/>
<path style="fill:#33787a; stroke:none;" d="M291 478L292 479L291 478M308 478L309 479L308 478z"/>
<path style="fill:#619698; stroke:none;" d="M105 479L105 482L106 482L105 479z"/>
<path style="fill:#a3c2c3; stroke:none;" d="M159 479L160 480L159 479z"/>
<path style="fill:#619698; stroke:none;" d="M175 479L176 480L175 479z"/>
<path style="fill:#33787a; stroke:none;" d="M224 479L225 480L224 479z"/>
<path style="fill:#a3c2c3; stroke:none;" d="M243 479L244 480L243 479z"/>
<path style="fill:#619698; stroke:none;" d="M292 479L293 480L292 479M307 479L308 480L307 479M359 479L359 482L360 482L359 479M161 480L162 481L161 480z"/>
<path style="fill:#33787a; stroke:none;" d="M173 480L174 481L173 480z"/>
<path style="fill:#a3c2c3; stroke:none;" d="M174 480L175 481L174 480z"/>
<path style="fill:#33787a; stroke:none;" d="M225 480L226 481L225 480z"/>
<path style="fill:#a3c2c3; stroke:none;" d="M242 480L243 481L242 480M293 480L294 481L293 480z"/>
<path style="fill:#33787a; stroke:none;" d="M294 480L295 481L294 480M305 480L306 481L305 480z"/>
<path style="fill:#a3c2c3; stroke:none;" d="M306 480L307 481L306 480M163 481L164 482L163 481z"/>
<path style="fill:#619698; stroke:none;" d="M164 481L165 482L164 481z"/>
<path style="fill:#33787a; stroke:none;" d="M170 481L171 482L170 481z"/>
<path style="fill:#619698; stroke:none;" d="M171 481L172 482L171 481M226 481L227 482L226 481z"/>
<path style="fill:#33787a; stroke:none;" d="M240 481L241 482L240 481z"/>
<path style="fill:#a3c2c3; stroke:none;" d="M295 481L296 482L295 481z"/>
<path style="fill:#619698; stroke:none;" d="M296 481L297 482L296 481M303 481L304 482L303 481z"/>
<path style="fill:#a3c2c3; stroke:none;" d="M304 481L305 482L304 481z"/>
<path style="fill:#33787a; stroke:none;" d="M105.333 482.667L105.667 483.333L105.333 482.667z"/>
<path style="fill:#a3c2c3; stroke:none;" d="M227 482L228 483L227 482z"/>
<path style="fill:#619698; stroke:none;" d="M228 482L229 483L228 482z"/>
<path style="fill:#33787a; stroke:none;" d="M238 482L239 483L238 482z"/>
<path style="fill:#a3c2c3; stroke:none;" d="M239 482L240 483L239 482M300 482L301 483L300 482z"/>
<path style="fill:#33787a; stroke:none;" d="M359.333 482.667L359.667 483.333L359.333 482.667z"/>
<path style="fill:#a3c2c3; stroke:none;" d="M230 483L231 484L230 483z"/>
<path style="fill:#619698; stroke:none;" d="M231 483L232 484L231 483z"/>
<path style="fill:#33787a; stroke:none;" d="M232 483L233 484L232 483M235 483L236 484L235 483z"/>
<path style="fill:#619698; stroke:none;" d="M236 483L237 484L236 483z"/>
<path style="fill:#a3c2c3; stroke:none;" d="M237 483L238 484L237 483z"/>
<path style="fill:#619698; stroke:none;" d="M106 487L107 488L106 487z"/>
<path style="fill:#a3c2c3; stroke:none;" d="M358 489L359 490L358 489z"/>
<path style="fill:#619698; stroke:none;" d="M107 490L108 491L107 490z"/>
<path style="fill:#33787a; stroke:none;" d="M358 490L359 491L358 490z"/>
<path style="fill:#a3c2c3; stroke:none;" d="M108 492L109 493L108 492z"/>
<path style="fill:#619698; stroke:none;" d="M357 492L358 493L357 492z"/>
<path style="fill:#a3c2c3; stroke:none;" d="M356 493L357 494L356 493z"/>
<path style="fill:#33787a; stroke:none;" d="M109 494L110 495L109 494z"/>
<path style="fill:#619698; stroke:none;" d="M110 495L111 496L110 495z"/>
<path style="fill:#33787a; stroke:none;" d="M355 495L356 496L355 495z"/>
<path style="fill:#619698; stroke:none;" d="M111 496L112 497L111 496z"/>
<path style="fill:#33787a; stroke:none;" d="M354 496L355 497L354 496M112 497L113 498L112 497z"/>
<path style="fill:#a3c2c3; stroke:none;" d="M113 497L114 498L113 497M352 497L353 498L352 497z"/>
<path style="fill:#33787a; stroke:none;" d="M353 497L354 498L353 497z"/>
<path style="fill:#619698; stroke:none;" d="M114 498L115 499L114 498z"/>
<path style="fill:#a3c2c3; stroke:none;" d="M115 498L116 499L115 498M350 498L351 499L350 498z"/>
<path style="fill:#619698; stroke:none;" d="M351 498L352 499L351 498z"/>
<path style="fill:#33787a; stroke:none;" d="M116 499L116 500L120 500L116 499z"/>
<path style="fill:#619698; stroke:none;" d="M120 499L121 500L120 499z"/>
<path style="fill:#33787a; stroke:none;" d="M121 499L121 500L126 500L121 499z"/>
<path style="fill:#619698; stroke:none;" d="M126 499L127 500L126 499z"/>
<path style="fill:#a3c2c3; stroke:none;" d="M127 499L128 500L127 499z"/>
<path style="fill:#33787a; stroke:none;" d="M128 499L128 500L132 500L128 499z"/>
<path style="fill:#619698; stroke:none;" d="M132.667 499.333L133.333 499.667L132.667 499.333z"/>
<path style="fill:#33787a; stroke:none;" d="M134 499L134 500L139 500L134 499z"/>
<path style="fill:#619698; stroke:none;" d="M139 499L140 500L139 499z"/>
<path style="fill:#33787a; stroke:none;" d="M140 499L140 500L145 500L140 499z"/>
<path style="fill:#619698; stroke:none;" d="M145.667 499.333L146.333 499.667L145.667 499.333z"/>
<path style="fill:#33787a; stroke:none;" d="M147 499L147 500L152 500L147 499z"/>
<path style="fill:#619698; stroke:none;" d="M152 499L153 500L152 499z"/>
<path style="fill:#33787a; stroke:none;" d="M153 499L153 500L158 500L153 499z"/>
<path style="fill:#619698; stroke:none;" d="M158.667 499.333L159.333 499.667L158.667 499.333z"/>
<path style="fill:#33787a; stroke:none;" d="M160 499L160 500L165 500L160 499z"/>
<path style="fill:#619698; stroke:none;" d="M165 499L166 500L165 499z"/>
<path style="fill:#a3c2c3; stroke:none;" d="M166 499L166 500L343 500L326 499L290 499L166 499z"/>
<path style="fill:#619698; stroke:none;" d="M343 499L343 500L346 500L343 499z"/>
<path style="fill:#33787a; stroke:none;" d="M346 499L346 500L349 500L346 499z"/>
</svg>
